<?xml version="1.0" standalone="no"?>
<!DOCTYPE svg PUBLIC "-//W3C//DTD SVG 20010904//EN"
 "http://www.w3.org/TR/2001/REC-SVG-20010904/DTD/svg10.dtd">
<svg version="1.0" xmlns="http://www.w3.org/2000/svg"
 width="500.000000pt" height="500.000000pt" viewBox="0 0 500.000000 500.000000"
 preserveAspectRatio="xMidYMid meet">
<metadata>
Created by potrace 1.11, written by Peter Selinger 2001-2013
</metadata>
<g transform="translate(0.000000,500.000000) scale(0.100000,-0.100000)"
fill="#000000" stroke="none">
<path d="M1515 4941 c-118 -64 -343 -227 -331 -239 10 -9 -25 -41 -39 -36 -7
3 -15 -2 -19 -12 -5 -13 -4 -14 7 -6 8 7 17 9 20 6 16 -16 105 34 160 91 52
53 54 54 21 13 -21 -27 -43 -48 -48 -48 -5 0 -7 -3 -3 -6 23 -23 128 60 111
88 -4 6 -3 8 3 5 17 -11 39 21 25 35 -9 9 -12 9 -12 -2 0 -7 -3 -10 -7 -7 -7
8 46 67 60 67 5 0 -2 -10 -17 -21 -18 -14 -24 -25 -18 -31 6 -6 25 7 53 38 62
67 81 84 95 84 7 0 16 5 19 10 11 17 -8 11 -80 -29z"/>
<path d="M1538 4874 c-7 -16 -29 -56 -50 -90 -21 -34 -38 -64 -38 -68 0 -3 12
-5 28 -5 24 2 24 2 4 6 l-23 5 24 31 c31 41 80 137 73 144 -3 3 -11 -7 -18
-23z"/>
<path d="M1155 4689 c-11 -17 1 -21 15 -4 8 9 8 15 2 15 -6 0 -14 -5 -17 -11z"/>
<path d="M1927 4663 c18 -2 50 -2 70 0 21 2 7 4 -32 4 -38 0 -55 -2 -38 -4z"/>
<path d="M2123 4663 c9 -2 23 -2 30 0 6 3 -1 5 -18 5 -16 0 -22 -2 -12 -5z"/>
<path d="M2185 4659 c11 -30 -16 -54 -433 -396 -31 -25 -40 -39 -33 -46 7 -7
17 -7 33 1 23 12 23 12 -2 6 -21 -5 -16 2 25 40 28 25 53 46 57 46 10 0 1 -40
-13 -56 -7 -8 -10 -16 -8 -18 2 -2 19 16 36 40 18 24 29 43 25 43 -19 -3 -23
2 -12 16 14 17 35 21 24 4 -4 -8 0 -8 15 0 25 14 28 26 4 17 -13 -5 -11 0 7
18 13 15 31 25 39 24 9 -2 15 2 14 8 -1 6 33 41 75 77 136 115 174 159 153
180 -10 9 -11 8 -6 -4z m-330 -348 c3 -5 2 -12 -3 -15 -5 -3 -9 1 -9 9 0 17 3
19 12 6z"/>
<path d="M1833 4653 c9 -2 23 -2 30 0 6 3 -1 5 -18 5 -16 0 -22 -2 -12 -5z"/>
<path d="M1677 4639 c7 -7 15 -10 18 -7 3 3 -2 9 -12 12 -14 6 -15 5 -6 -5z"/>
<path d="M1950 4624 c-154 -22 -221 -39 -217 -53 3 -9 11 -37 18 -63 7 -27 17
-48 21 -48 4 0 43 26 87 59 43 32 100 67 125 77 25 10 46 22 46 27 0 7 -33 7
-80 1z"/>
<path d="M1034 4594 c-18 -14 -18 -14 6 -3 31 14 36 19 24 19 -6 0 -19 -7 -30
-16z"/>
<path d="M865 4458 l-50 -53 53 50 c48 46 57 55 49 55 -1 0 -25 -24 -52 -52z"/>
<path d="M2700 4303 c-71 -8 -268 -45 -362 -69 -171 -43 -396 -77 -462 -69
-32 3 -66 10 -75 15 -9 5 -40 16 -69 24 -48 13 -58 13 -90 -1 -20 -9 -74 -18
-120 -21 -79 -5 -86 -3 -160 31 -218 103 -448 101 -575 -4 -44 -36 -43 -48 2
-25 16 9 44 16 60 16 41 0 154 -42 193 -72 87 -66 204 -108 304 -108 82 0 116
13 199 75 90 67 114 80 127 67 8 -8 4 -25 -11 -57 -28 -60 -120 -208 -171
-276 -67 -90 -271 -289 -350 -342 -98 -67 -279 -160 -355 -183 -73 -22 -69
-19 -56 -41 6 -11 11 -13 11 -5 0 7 4 11 9 8 5 -4 11 -2 13 2 1 5 15 12 31 16
l27 7 -15 -38 c-9 -21 -23 -48 -31 -60 -7 -12 -14 -27 -14 -32 0 -6 -11 -27
-25 -47 -29 -42 -30 -38 -10 30 17 57 18 66 6 66 -5 0 -11 -18 -15 -41 -9 -56
-51 -173 -77 -215 -12 -19 -19 -37 -16 -40 2 -3 30 35 61 83 30 48 61 95 68
103 7 8 29 49 49 92 20 43 40 74 44 70 5 -4 5 -2 1 5 -10 18 25 68 36 51 6
-10 10 -10 18 2 5 8 10 11 10 6 0 -6 6 -1 14 10 14 18 15 17 11 -11 -9 -80
-80 -232 -151 -330 -37 -49 -55 -79 -40 -65 15 13 48 55 74 93 l47 69 3 -41
c4 -51 20 -54 24 -3 2 20 8 -69 15 -198 7 -129 15 -245 19 -257 11 -40 24 -25
24 27 0 28 5 50 10 50 13 0 13 56 -1 81 -12 23 -4 58 10 43 9 -9 19 -112 21
-199 0 -29 3 -36 10 -25 5 8 7 22 4 32 -2 9 0 19 6 23 6 4 10 -13 10 -47 0
-29 4 -59 9 -67 5 -8 9 37 10 115 0 71 2 140 3 154 1 14 -1 43 -5 65 l-7 40
29 -55 c35 -67 58 -168 64 -275 3 -44 3 -70 0 -57 -8 40 -21 23 -29 -35 -5
-45 -9 -54 -16 -38 -6 15 -7 13 -3 -10 17 -95 17 -101 1 -114 -9 -7 -16 -19
-16 -26 0 -15 -30 -75 -37 -75 -3 0 -3 20 0 45 10 67 1 55 -18 -27 -9 -40 -24
-91 -31 -113 l-15 -40 6 38 c9 59 -2 43 -25 -35 -24 -81 -80 -208 -92 -208 -4
0 -8 -7 -8 -15 0 -8 -5 -15 -11 -15 -5 0 -15 -13 -20 -30 -6 -16 -15 -30 -20
-30 -5 0 1 24 13 53 37 91 98 258 98 268 0 5 -4 9 -8 9 -11 0 -29 -41 -87
-200 -60 -161 -133 -300 -251 -471 -92 -134 -243 -323 -251 -315 -3 2 0 12 6
23 6 10 33 65 60 123 27 58 70 143 95 189 25 47 46 87 46 90 0 11 -94 -86
-129 -134 -44 -60 -145 -235 -243 -421 -39 -74 -72 -133 -75 -131 -6 6 41 99
129 256 38 68 67 125 65 128 -7 7 -113 -159 -184 -287 -34 -63 -63 -111 -63
-106 0 17 110 216 167 303 31 48 84 122 116 166 61 81 189 288 182 295 -2 2
-32 -19 -67 -46 -34 -27 -113 -83 -175 -125 -62 -41 -128 -87 -148 -102 -24
-19 -33 -22 -29 -11 3 9 9 16 13 16 25 0 378 280 422 335 10 11 29 34 44 50
60 68 64 78 49 105 l-15 25 4 -30 c2 -16 2 -24 0 -17 -3 7 -8 10 -13 7 -5 -3
-11 -1 -15 5 -3 5 -1 10 4 10 23 0 10 15 -14 16 -23 2 -24 0 -10 -19 18 -26 1
-55 -21 -36 -17 14 -19 -2 -2 -19 7 -7 8 -12 2 -12 -5 0 -15 9 -22 20 -7 11
-18 20 -24 20 -9 0 -9 -3 0 -12 20 -20 13 -32 -8 -13 -18 16 -19 20 -5 35 21
24 19 27 -15 22 -23 -3 -30 0 -30 12 0 9 5 16 10 16 6 0 10 -5 10 -12 0 -6 3
-8 6 -5 4 4 1 13 -5 21 -8 10 -9 16 -2 21 12 7 34 45 27 45 -2 0 -20 -22 -40
-50 -22 -31 -33 -56 -30 -67 4 -13 3 -14 -3 -5 -7 8 -53 -48 -158 -193 -83
-114 -151 -201 -153 -196 -2 6 32 61 75 122 43 62 77 118 75 126 -2 7 3 13 10
13 14 0 106 123 144 190 10 19 22 37 27 38 4 2 7 8 7 14 0 19 -38 -23 -45 -49
-5 -20 -8 -23 -20 -13 -8 7 -15 22 -14 34 0 19 1 19 11 -4 l11 -25 5 25 c2 14
9 28 15 32 6 4 8 10 4 15 -5 4 -12 1 -16 -6 -11 -17 -34 -4 -27 15 3 8 0 13
-7 11 -7 -1 -11 4 -9 11 2 10 -4 11 -19 7 -19 -6 -21 -4 -16 14 4 17 1 21 -19
21 -18 0 -22 4 -18 18 4 10 3 13 -3 6 -4 -6 -34 -21 -66 -34 -37 -16 -53 -26
-45 -32 10 -6 10 -8 1 -8 -7 0 -13 -5 -13 -11 0 -5 5 -7 10 -4 6 3 10 1 10 -5
0 -7 -7 -9 -15 -6 -20 8 -42 14 -32 9 12 -8 8 -35 -5 -30 -7 2 -12 10 -11 16
4 14 -14 15 -22 1 -3 -5 -11 -10 -18 -10 -6 0 4 11 23 24 19 13 41 21 48 19 7
-3 12 0 10 7 -4 18 251 146 407 203 263 97 268 99 277 131 4 17 6 31 4 33 -2
2 -23 -8 -47 -21 -24 -14 -111 -50 -192 -81 -258 -96 -419 -168 -518 -231
l-38 -23 0 -605 0 -605 126 127 c122 123 141 134 38 22 -28 -30 -77 -89 -108
-131 l-57 -76 0 -356 0 -357 905 0 c654 0 905 3 905 11 0 6 -7 37 -15 69 -8
32 -19 100 -25 151 -30 289 -32 314 -22 368 6 31 16 108 22 171 6 63 14 126
18 138 8 29 97 69 245 112 97 28 144 49 79 35 l-33 -7 3 59 4 58 40 3 c23 2
64 -6 95 -17 54 -20 55 -22 51 -55 -3 -27 -10 -36 -30 -41 -19 -5 -30 -2 -39
11 -10 14 -16 15 -35 6 -21 -11 -21 -12 -2 -7 14 4 24 0 28 -10 3 -9 18 -15
41 -15 35 0 35 0 32 -42 -1 -24 -6 -43 -12 -43 -5 1 -32 5 -58 9 l-48 8 28 31
c27 29 26 28 -22 -6 -28 -20 -87 -51 -130 -70 -84 -35 -158 -77 -138 -77 20 0
8 -128 -14 -153 -11 -13 -12 -17 -3 -11 8 6 53 39 98 73 46 33 94 61 106 61
29 0 101 -47 149 -97 32 -34 39 -50 52 -119 8 -43 17 -91 20 -106 7 -34 -8
-36 -30 -5 -16 21 -16 21 -10 -18 4 -22 9 -49 11 -60 2 -11 1 -14 -2 -7 -15
33 -23 1 -29 -125 -5 -119 -14 -171 -41 -265 -5 -17 28 -18 595 -18 l601 0 5
23 c3 12 12 54 19 92 8 39 14 59 15 45 0 -22 -5 -52 -24 -137 -5 -22 -3 -23
79 -23 101 0 99 -4 85 141 -14 146 -63 366 -114 504 -24 67 -25 68 -20 25 7
-70 9 -159 3 -165 -3 -3 -9 49 -13 116 -4 67 -13 143 -21 168 -17 55 -16 51
-4 51 6 0 10 -7 10 -15 0 -9 11 -43 25 -76 72 -170 136 -447 151 -655 l7 -94
38 0 38 0 -4 121 c-3 67 -8 125 -11 130 -3 5 0 9 5 9 8 0 10 37 8 113 -2 61 0
123 4 137 4 14 8 -57 9 -157 1 -101 2 -221 2 -268 l1 -85 659 0 658 0 0 194 0
195 -37 -6 c-21 -3 -55 -9 -75 -13 -21 -4 -38 -6 -38 -5 0 3 69 124 77 134 2
2 6 1 10 -3 4 -4 1 -11 -7 -17 -13 -8 -13 -10 0 -20 13 -9 12 -10 -2 -5 -10 3
-18 1 -18 -3 0 -5 -3 -17 -7 -27 -5 -14 -3 -16 12 -11 15 6 16 5 5 -8 -10 -12
-10 -15 4 -15 9 0 16 5 16 10 0 6 5 10 11 10 5 0 7 -4 4 -10 -4 -6 2 -7 17 -1
25 9 36 47 19 64 -8 8 -11 8 -11 0 0 -20 -26 -22 -27 -2 -1 10 3 19 8 19 6 0
7 5 4 10 -9 14 8 13 23 -2 9 -9 12 208 12 940 0 524 -1 952 -3 952 -15 0 -67
-24 -67 -30 0 -5 -10 -12 -22 -16 -12 -3 -28 -13 -36 -20 -7 -8 -26 -14 -42
-14 -16 0 -31 -6 -33 -12 -4 -10 -6 -10 -6 0 -1 10 -4 10 -15 0 -7 -7 -11 -19
-8 -27 4 -11 -1 -13 -22 -9 -20 4 -26 2 -22 -8 5 -13 -84 -51 -112 -47 -7 0
-11 -1 -8 -4 3 -3 -2 -12 -10 -20 -8 -9 -18 -12 -22 -9 -3 4 0 11 8 16 17 11
13 15 -20 24 -19 6 -21 5 -10 -3 10 -7 11 -11 3 -11 -7 0 -13 -7 -13 -15 0 -8
-7 -15 -15 -15 -18 0 -19 12 -3 28 9 9 7 12 -9 12 -12 0 -25 -5 -29 -11 -4 -7
-22 -9 -45 -6 -31 4 -39 2 -40 -11 -1 -10 -4 -6 -8 8 -7 25 -7 25 -19 -7 -13
-39 -35 -45 -26 -8 6 25 -10 36 -19 13 -4 -10 -8 -9 -16 2 -7 10 -6 17 2 22 8
5 6 8 -5 8 -10 0 -18 -5 -18 -12 0 -9 -3 -9 -12 0 -17 17 -35 15 -58 -8 -20
-20 -20 -20 -17 3 1 14 -3 22 -13 22 -8 0 -14 -5 -13 -12 2 -7 -4 -10 -13 -6
-8 3 -13 11 -10 18 3 9 -8 12 -42 9 -26 -1 -48 -7 -50 -13 -2 -6 -13 -11 -24
-11 -17 0 -18 3 -8 15 7 8 8 15 2 15 -5 0 -16 -7 -23 -17 -11 -13 -11 -17 -1
-20 14 -5 16 -23 3 -23 -5 0 -13 9 -16 20 -3 11 -12 20 -18 20 -7 0 -18 9 -24
19 -7 11 -28 24 -48 31 -29 10 -34 14 -24 26 14 17 5 18 -22 4 -10 -6 -19 -20
-19 -30 0 -26 -16 -26 -23 0 -3 12 -14 20 -25 20 -12 0 -24 5 -27 10 -5 8 -11
7 -20 0 -11 -9 -14 -7 -12 9 1 23 22 28 30 7 7 -17 67 -30 80 -17 12 12 -15
41 -42 46 -11 2 -36 -1 -55 -6 -38 -10 -82 3 -71 22 4 6 13 5 25 -1 27 -14 56
-12 70 5 7 8 15 13 19 11 3 -2 8 19 9 48 2 38 -1 56 -12 66 -9 7 -13 17 -9 23
3 6 1 7 -5 3 -16 -10 -90 33 -97 55 -9 28 12 59 40 59 15 0 33 -12 49 -32 25
-33 32 -26 20 19 -4 16 -17 23 -47 28 -36 7 -44 4 -64 -19 -35 -41 -30 -80 12
-109 19 -13 32 -27 27 -32 -4 -5 -1 -5 6 -1 22 13 62 -21 62 -52 0 -35 -14
-57 -30 -47 -9 5 -11 4 -6 -3 14 -23 -35 -12 -57 12 -35 38 -46 54 -42 58 2 2
-4 4 -15 4 -10 0 -18 -3 -18 -6 2 -19 -4 -23 -13 -10 -8 13 -10 12 -7 -3 2
-10 7 -17 12 -17 9 2 26 -19 26 -32 0 -11 -31 -38 -43 -37 -8 0 -8 2 1 6 6 2
10 9 6 14 -3 5 2 9 10 9 20 0 21 16 1 24 -10 4 -19 -2 -24 -16 -6 -17 -9 -18
-14 -5 -3 8 0 18 7 20 15 6 10 53 -7 64 -6 4 -8 -4 -3 -23 5 -21 4 -25 -4 -14
-10 16 -14 8 -10 -24 1 -10 -3 -16 -8 -12 -5 3 -17 -3 -27 -13 -16 -19 -15
-20 9 -36 15 -10 34 -14 48 -10 21 5 21 5 4 -6 -14 -9 -26 -7 -57 7 -36 18
-51 34 -30 34 23 0 51 69 51 125 0 119 -71 188 -145 139 l-24 -15 20 52 c29
76 53 118 102 180 50 63 176 167 264 218 321 188 383 256 383 421 0 76 -17
140 -65 247 -23 49 -38 72 -46 67 -8 -4 -9 -3 -5 4 14 23 -83 148 -182 233
-80 69 -306 184 -320 163 -8 -11 -138 29 -134 41 4 11 -121 41 -248 60 -87 14
-347 18 -440 8z m480 -72 c230 -40 446 -116 576 -203 107 -72 214 -190 268
-298 100 -199 84 -348 -48 -467 -28 -24 -111 -81 -185 -125 -165 -98 -263
-171 -330 -244 -56 -61 -117 -164 -127 -212 -8 -38 -27 -56 -54 -49 -11 3 -23
1 -26 -4 -3 -5 2 -9 10 -9 13 0 16 -16 16 -97 l0 -98 -57 102 c-45 80 -62 102
-82 106 -32 6 -42 -1 -18 -14 15 -9 17 -24 16 -117 -1 -109 -5 -132 -20 -132
-4 0 -6 6 -3 14 3 8 -5 21 -18 30 -26 18 -17 21 15 5 21 -10 21 -9 -1 10 -13
12 -21 26 -17 33 4 7 -3 2 -15 -11 -15 -18 -23 -22 -29 -13 -4 7 -15 10 -24 6
-14 -5 -16 -2 -11 12 6 16 5 17 -7 7 -20 -20 -31 -15 -23 9 6 20 5 21 -9 10
-9 -8 -21 -11 -27 -7 -8 5 -5 12 7 21 17 13 16 14 -9 8 -28 -6 -50 18 -40 45
3 8 -1 12 -9 9 -8 -3 -20 4 -27 16 -13 21 -13 21 -7 -1 9 -32 -3 -29 -15 3 -8
21 -15 25 -33 20 -15 -4 -27 1 -40 17 l-18 22 5 -30 c15 -101 183 -454 208
-439 7 4 8 2 4 -4 -8 -13 34 -80 172 -275 76 -107 108 -144 115 -135 6 9 7 8
3 -5 -4 -12 11 -42 47 -90 90 -123 174 -261 236 -389 59 -122 124 -293 118
-311 -1 -5 -13 24 -26 64 -14 41 -41 114 -62 162 -42 99 -204 377 -219 377 -6
0 -10 6 -10 13 0 7 -31 55 -68 107 -116 162 -115 161 -125 148 -6 -9 -7 -7 -3
5 4 12 -7 35 -32 66 -125 163 -253 383 -327 564 -15 37 -32 67 -37 67 -5 0 -6
9 -3 20 4 12 2 20 -5 20 -6 0 -10 6 -8 13 3 17 -12 57 -22 57 -5 0 -10 -8 -13
-17 -2 -10 -7 4 -12 31 -8 49 -1 267 10 316 l5 25 -9 -25 c-5 -14 -13 -41 -19
-60 -8 -29 -10 -19 -10 63 0 54 -3 101 -6 104 -3 4 -6 -25 -7 -63 l-1 -69 -20
100 c-16 82 -18 128 -15 255 4 133 4 143 -4 70 -5 -47 -8 -205 -7 -352 2 -147
0 -264 -3 -260 -3 4 -14 43 -25 87 -14 59 -20 72 -22 50 -2 -16 11 -75 28
-130 18 -55 43 -139 56 -188 13 -48 31 -101 39 -118 9 -16 20 -65 25 -107 l9
-77 -3 80 c-2 44 -6 89 -10 100 -4 11 27 -47 68 -130 41 -82 85 -158 98 -169
13 -10 23 -21 23 -25 0 -15 58 -80 67 -75 6 4 9 1 6 -7 -2 -7 11 -36 29 -63
52 -79 77 -173 70 -262 l-7 -73 35 -21 c20 -12 42 -29 51 -37 12 -13 17 -13
32 -1 15 12 16 11 3 -4 -13 -18 -13 -19 12 -22 6 0 12 -6 12 -13 0 -6 14 -27
30 -46 69 -79 92 -131 105 -231 14 -99 8 -139 -18 -134 -14 3 -18 20 -24 112
-3 60 -9 120 -13 135 -10 40 -71 108 -123 137 -26 15 -65 38 -87 52 -24 15
-40 21 -43 14 -2 -6 -15 -28 -29 -49 -15 -21 -32 -65 -39 -98 -13 -59 -13 -59
-10 -12 l4 48 -29 -32 c-27 -30 -28 -34 -14 -53 97 -135 123 -243 91 -378
l-13 -58 30 0 c17 0 39 7 49 17 10 9 21 13 24 10 11 -11 -60 -47 -92 -47 -21
0 -35 -6 -40 -18 -4 -9 -8 -73 -8 -142 -1 -113 -3 -130 -26 -174 -13 -26 -50
-76 -81 -110 -64 -70 -64 -72 -1 -139 20 -20 31 -37 25 -37 -6 0 -31 23 -56
51 l-44 51 -34 -52 c-18 -28 -35 -47 -37 -42 -1 5 11 30 28 55 16 25 30 55 30
68 0 34 -63 -86 -66 -126 -2 -16 -9 -57 -17 -90 -13 -55 -15 -58 -22 -32 -9
34 1 134 19 185 8 21 28 61 46 90 17 29 34 70 36 92 7 56 29 116 66 173 17 27
27 52 22 55 -5 4 -10 12 -10 17 -1 6 -15 66 -32 135 -38 154 -41 251 -11 330
13 33 20 76 19 108 0 28 2 52 5 52 3 0 12 -15 20 -32 8 -18 14 -27 15 -20 0 7
-8 32 -18 55 -11 23 -31 77 -46 120 -28 76 -45 103 -31 50 5 -20 3 -25 -5 -17
-6 6 -11 32 -12 58 0 31 -4 43 -9 35 -7 -11 -9 -11 -9 -1 0 7 -27 53 -60 101
-85 126 -93 148 -92 266 0 55 5 116 11 135 11 35 14 167 4 140 -9 -21 -30 -40
-37 -33 -3 4 -6 -5 -6 -20 0 -14 -4 -28 -9 -32 -6 -3 -11 32 -14 82 -2 49 -14
126 -26 173 -24 95 -31 292 -13 370 6 25 13 74 17 110 4 36 18 101 31 145 13
44 24 96 24 115 2 56 -15 188 -24 197 -4 4 -7 -3 -6 -17 4 -50 0 -70 -15 -70
-8 0 -15 9 -15 21 0 11 -4 18 -9 15 -11 -7 -21 17 -21 49 0 19 -15 77 -55 210
-3 11 3 2 13 -19 10 -22 21 -36 23 -30 3 5 -4 28 -17 52 -13 26 -24 38 -27 30
-4 -9 -6 -8 -6 4 -1 24 -21 72 -27 66 -3 -3 8 -50 24 -104 45 -151 64 -256 62
-347 -2 -45 0 -104 4 -132 5 -49 5 -49 -8 10 -8 33 -19 73 -25 88 -14 36 -14
45 2 50 6 2 4 3 -5 2 -11 -2 -18 3 -18 13 -1 48 -132 303 -147 288 -3 -2 14
-34 37 -69 31 -50 90 -176 90 -193 0 -7 -93 -32 -104 -28 -8 3 -17 26 -20 52
-11 77 -101 340 -113 329 -2 -3 6 -25 17 -51 11 -26 20 -51 20 -56 0 -8 -76
-30 -104 -30 -14 0 -16 19 -18 118 -1 105 -2 98 -9 -68 -5 -134 -13 -210 -28
-275 -32 -132 -34 -143 -23 -125 15 23 42 144 55 244 l12 90 50 13 c28 7 55
13 62 13 17 0 73 -188 73 -248 0 -16 -29 -27 -200 -73 -8 -2 -25 -24 -37 -49
-14 -30 -22 -38 -22 -25 -1 11 -7 29 -15 40 -21 31 -62 155 -106 320 -22 83
-37 130 -34 105 12 -95 58 -270 100 -377 24 -61 44 -115 44 -120 0 -4 10 -19
21 -33 19 -24 20 -24 9 -2 -13 27 -7 52 13 52 8 0 22 9 32 20 10 11 22 17 26
14 14 -8 10 -24 -5 -24 -8 0 -18 -4 -21 -10 -4 -6 2 -7 17 -1 13 4 29 6 36 4
17 -6 15 7 -3 27 -14 16 -14 17 8 15 14 -2 50 4 82 13 49 14 58 14 66 1 7 -12
9 -12 9 2 0 9 15 21 38 28 20 7 42 15 49 17 6 3 13 -3 16 -13 3 -16 5 -15 14
5 10 26 6 34 44 -97 11 -37 9 -84 -5 -126 -3 -11 3 -2 14 20 l19 40 1 -36 c0
-20 -7 -56 -15 -79 -21 -58 -12 -62 11 -6 35 85 39 42 8 -86 -17 -71 -48 -134
-117 -235 -59 -88 -230 -270 -295 -315 l-44 -30 -106 26 c-194 49 -393 132
-478 202 -53 43 -137 142 -107 125 12 -6 25 -15 28 -21 6 -9 126 -50 149 -50
6 0 -5 10 -24 21 -19 12 -53 36 -75 54 -22 18 -48 31 -58 30 -9 -2 -15 1 -11
6 3 5 10 7 15 4 16 -10 10 12 -7 26 -9 7 -32 36 -51 64 -19 27 -32 40 -28 28
10 -34 2 -28 -36 27 -19 27 -38 50 -42 50 -5 0 2 -14 14 -32 31 -43 60 -100
54 -106 -6 -7 -3 -10 -57 73 -82 129 -139 260 -154 355 -2 14 -10 50 -18 80
-14 55 -14 55 -15 15 0 -22 4 -60 10 -85 5 -25 11 -56 13 -70 3 -29 25 -100
36 -115 3 -5 13 -29 20 -53 7 -24 21 -47 29 -52 9 -5 11 -10 4 -10 -30 0 -109
147 -138 258 -15 58 -23 188 -12 198 10 10 39 -5 32 -16 -3 -5 -1 -10 4 -10 6
0 11 11 11 24 0 27 62 71 83 60 7 -4 9 -4 5 1 -10 10 19 38 32 30 5 -3 10 -21
11 -38 0 -18 4 -41 9 -52 6 -13 7 -3 4 31 -6 52 8 100 27 89 5 -4 9 -2 9 3 0
11 98 77 104 71 2 -2 -8 -56 -21 -119 -30 -140 -34 -363 -9 -470 8 -35 14 -66
12 -68 -14 -13 -106 272 -106 330 0 12 -9 41 -20 63 l-19 40 6 -50 c3 -27 16
-98 30 -157 13 -59 21 -113 17 -119 -4 -7 -3 -9 3 -6 7 4 13 -7 17 -28 10 -49
45 -127 46 -98 0 12 -5 25 -10 28 -6 3 -10 13 -10 21 0 9 22 -17 50 -58 62
-90 75 -108 84 -108 4 0 -7 20 -23 44 -29 41 -61 117 -61 143 0 7 7 10 18 6
16 -6 16 -5 0 13 -17 17 -14 19 90 47 153 41 152 41 152 28 0 -6 5 -11 10 -11
6 0 10 8 10 18 0 11 8 17 26 19 44 2 50 19 14 38 -43 22 -103 16 -230 -23 -52
-16 -99 -27 -103 -25 -11 7 -7 272 5 279 15 10 17 3 24 -99 4 -54 11 -100 15
-103 4 -2 7 12 5 33 -4 67 19 208 32 199 4 -3 14 0 22 5 12 8 11 9 -5 7 -28
-4 -23 30 25 172 21 63 32 106 25 96 -8 -10 -24 -49 -36 -85 -12 -36 -25 -68
-28 -71 -3 -3 -8 -21 -9 -40 -2 -19 -7 -36 -12 -38 -4 -2 -6 -11 -3 -21 3 -11
-2 -21 -12 -25 -16 -6 -17 0 -11 61 12 122 26 172 57 205 16 18 29 26 29 19 0
-11 5 -10 20 4 26 23 27 18 33 -132 4 -86 2 -123 -6 -123 -6 0 -4 -6 5 -12 9
-7 25 -45 36 -85 19 -68 52 -142 37 -83 -3 14 -11 58 -17 98 -9 62 -9 75 3 83
10 6 10 9 2 9 -9 0 -13 25 -14 88 l-1 87 -12 -55 -12 -55 -7 40 c-10 58 -9
123 3 130 5 3 7 18 4 33 -3 15 -1 38 4 52 5 14 10 28 11 33 0 4 6 14 13 21 21
22 28 -11 16 -74 -15 -82 5 -213 57 -384 43 -137 87 -246 101 -246 3 0 3 8 -1
18 -8 19 -34 196 -34 227 0 33 16 -3 24 -54 4 -25 16 -69 26 -99 13 -38 17
-72 14 -115 -4 -53 -3 -56 4 -22 12 56 20 176 21 335 l1 135 20 -60 c11 -33
31 -88 45 -121 25 -60 25 -63 10 -115 -9 -29 -12 -49 -8 -44 5 6 15 33 22 60
17 66 20 69 36 48 7 -10 -8 25 -35 78 -26 52 -64 145 -84 205 -28 82 -36 96
-30 59 8 -54 9 -75 5 -288 -1 -80 -6 -136 -11 -133 -5 4 -14 39 -21 79 -6 39
-15 96 -21 126 -5 30 -9 86 -10 125 0 58 -2 67 -11 46 -10 -26 -5 -343 7 -390
6 -22 5 -23 -6 -6 -26 42 -68 220 -80 339 -15 168 -9 332 13 349 9 7 20 27 23
43 l6 30 -16 -27 c-9 -16 -18 -28 -21 -28 -3 0 8 24 25 53 17 28 35 51 40 50
6 -2 7 5 4 14 -5 12 -3 14 7 8 8 -5 11 -4 6 3 -4 6 7 36 23 66 16 30 31 60 33
65 2 7 20 4 48 -6 57 -20 247 -23 345 -4 39 7 147 30 240 52 145 32 273 54
435 73 75 9 311 -4 420 -23z m-2014 -5 c18 -6 20 -13 14 -44 -5 -30 -10 -37
-28 -36 -12 0 -22 -3 -22 -8 0 -17 -38 -7 -83 22 -44 28 -60 50 -37 50 6 0 10
7 10 16 0 9 6 14 13 11 8 -3 19 -2 26 2 11 7 68 0 107 -13z m314 -116 c0 -5 8
-7 18 -4 14 5 14 3 -3 -10 -26 -21 -81 -36 -130 -35 -38 1 -39 1 -10 8 17 4
48 17 70 29 45 24 55 26 55 12z m2397 -122 c56 -58 123 -138 123 -146 0 -4
-14 9 -31 28 -17 19 -63 68 -102 109 -40 40 -63 69 -52 63 11 -6 39 -30 62
-54z m-2400 -615 c-3 -10 -5 -2 -5 17 0 19 2 27 5 18 2 -10 2 -26 0 -35z
m-196 -16 c-13 -13 -15 1 -4 30 7 17 8 17 11 -1 2 -10 -1 -23 -7 -29z m1196
-49 c-2 -13 -4 -3 -4 22 0 25 2 35 4 23 2 -13 2 -33 0 -45z m-1163 5 c-9 -52
-14 -54 -14 -5 0 23 5 42 10 42 7 0 8 -14 4 -37z m1051 7 c4 -6 -1 -7 -11 -3
-11 4 -15 3 -11 -4 6 -10 -40 -33 -65 -33 -14 0 18 29 44 39 30 13 36 13 43 1z
m142 -32 c-3 -8 -6 -5 -6 6 -1 11 2 17 5 13 3 -3 4 -12 1 -19z m-258 -12 c-2
-2 -18 -7 -34 -10 l-30 -6 28 13 c15 7 26 16 24 19 -2 3 1 2 6 -3 6 -5 9 -11
6 -13z m286 -43 c-9 -50 -17 -34 -9 18 4 24 9 38 12 31 2 -7 1 -29 -3 -49z
m-20 -72 c-3 -12 -11 -19 -16 -16 -5 4 -5 14 2 26 13 26 23 18 14 -10z m-24
-62 c-5 -13 -10 -19 -10 -12 -1 15 10 45 15 40 3 -2 0 -15 -5 -28z m-1056 -29
c3 -6 -1 -7 -9 -4 -18 7 -21 14 -7 14 6 0 13 -4 16 -10z m-25 -10 c8 -5 11
-10 5 -10 -5 0 -17 5 -25 10 -8 5 -10 10 -5 10 6 0 17 -5 25 -10z m-447 -182
c3 -21 2 -38 -3 -38 -5 0 -10 -8 -12 -17 -2 -10 -4 11 -4 45 -1 67 10 72 19
10z m310 -118 c3 -11 2 -22 -2 -24 -4 -3 -8 6 -9 20 -2 29 4 31 11 4z m37 -36
c0 -8 -19 -13 -24 -6 -3 5 1 9 9 9 8 0 15 -2 15 -3z m-373 -106 c-2 -13 -4 -3
-4 22 0 25 2 35 4 23 2 -13 2 -33 0 -45z m1491 -52 c-8 -46 -8 -70 -1 -74 25
-17 46 -293 23 -307 -14 -8 -19 24 -29 170 l-8 130 -1 -100 c-1 -55 5 -136 13
-180 8 -43 13 -81 11 -83 -2 -2 -16 21 -31 52 -22 45 -27 69 -27 133 0 75 20
216 43 296 16 58 20 40 7 -37z m884 -11 c-5 -70 16 -154 46 -189 17 -19 16
-19 -10 -2 -15 10 -25 23 -22 31 3 7 1 16 -5 20 -7 4 -9 -7 -6 -35 4 -27 2
-39 -5 -35 -17 11 -13 275 5 275 0 0 -1 -29 -3 -65z m174 44 c16 -17 19 -37
19 -110 0 -78 -3 -91 -22 -110 l-22 -22 -21 24 c-33 39 -58 91 -65 139 -5 38
-3 50 15 73 26 33 69 36 96 6z m-2271 -74 c9 -35 19 -118 22 -201 6 -147 7
-140 -43 -294 -3 -8 3 -1 12 15 10 17 26 57 35 90 l18 60 0 -49 c1 -29 -11
-83 -28 -135 -16 -47 -32 -102 -35 -121 -9 -54 11 -189 50 -333 31 -113 35
-139 29 -201 -5 -62 -3 -81 21 -146 15 -41 30 -91 34 -110 7 -33 8 -33 9 -6 1
28 1 28 26 12 13 -9 32 -16 40 -16 15 0 15 -1 1 -16 -9 -8 -24 -14 -33 -13
-30 3 -43 -1 -43 -11 0 -6 15 -8 35 -4 31 5 40 1 65 -26 25 -27 34 -31 60 -25
28 6 30 5 30 -24 0 -29 -2 -31 -37 -31 -21 0 -68 -3 -105 -6 l-67 -7 -26 -60
c-27 -63 -97 -168 -134 -201 -27 -24 -26 -42 4 -145 30 -101 34 -163 6 -86
-10 28 -25 64 -34 82 -9 17 -18 45 -19 62 l-2 31 -23 -22 c-13 -12 -23 -27
-23 -35 0 -7 -4 -13 -10 -13 -5 0 -23 -20 -40 -45 -84 -122 -83 -274 4 -389
36 -50 40 -64 6 -26 -51 57 -81 125 -87 199 -7 83 12 146 69 232 36 54 39 62
26 77 -24 28 -38 81 -37 141 l2 56 7 -58 c8 -60 37 -147 49 -147 4 0 17 13 29
30 18 24 22 45 24 119 3 96 16 95 17 -1 1 -32 4 -58 9 -58 10 0 106 144 137
208 31 62 49 160 40 222 -9 65 -37 151 -48 147 -5 -1 -17 -34 -27 -72 -10 -39
-49 -129 -88 -205 -45 -85 -78 -162 -89 -208 -14 -58 -19 -69 -25 -52 -4 12
-3 53 3 91 6 38 8 75 6 82 -3 7 -6 5 -6 -5 -1 -10 -6 -18 -11 -18 -19 0 -21
25 -5 69 8 24 15 54 15 68 0 28 -32 95 -70 143 -30 39 -80 157 -80 189 0 19
-19 32 -20 14 -1 -5 -26 -35 -57 -68 -47 -51 -51 -53 -22 -15 18 25 48 62 66
83 26 29 33 46 33 80 0 54 36 155 83 235 20 35 37 68 37 74 0 17 69 137 131
228 45 67 60 98 70 150 19 99 16 341 -4 423 -9 38 -17 71 -17 75 1 17 19 -28
35 -83z m1615 55 c0 -5 -4 -10 -10 -10 -5 0 -10 5 -10 10 0 6 5 10 10 10 6 0
10 -4 10 -10z m376 -77 c26 -49 57 -107 70 -130 19 -34 21 -43 9 -43 -8 0 -15
7 -15 15 0 8 -5 15 -11 15 -6 0 -9 6 -6 13 3 7 -2 22 -10 32 -14 19 -15 18
-11 -10 3 -16 3 -24 1 -17 -3 7 -9 10 -14 7 -5 -3 -6 1 -3 10 5 11 2 14 -10 9
-9 -3 -16 -1 -16 5 0 6 5 11 12 11 6 0 8 3 4 7 -8 9 -36 -24 -36 -41 0 -6 5
-4 10 4 8 13 10 12 10 -2 0 -10 -7 -18 -15 -18 -11 0 -15 13 -16 53 -1 28 -2
78 -3 110 -1 31 -1 57 0 57 1 0 24 -39 50 -87z m-946 -13 c0 -5 -2 -10 -4 -10
-3 0 -8 5 -11 10 -3 6 -1 10 4 10 6 0 11 -4 11 -10z m435 0 c3 -5 1 -10 -4
-10 -6 0 -11 5 -11 10 0 6 2 10 4 10 3 0 8 -4 11 -10z m-469 -9 c-4 -5 -2 -21
3 -35 9 -21 8 -24 -6 -19 -10 4 -14 2 -10 -4 4 -6 -1 -17 -11 -24 -14 -11 -15
-11 -5 1 10 10 9 16 -3 24 -13 10 -13 15 6 39 20 25 38 38 26 18z m-940 -63
c10 -42 7 -150 -5 -208 -9 -40 -9 -38 -5 25 3 39 1 103 -4 143 -8 73 0 98 14
40z m1031 -24 c19 -84 15 -162 -13 -249 -33 -102 -53 -135 -80 -135 -13 0 -25
-10 -33 -27 -11 -23 -10 -29 7 -42 11 -9 30 -36 42 -61 32 -64 71 -120 83
-120 6 0 1 10 -10 23 -20 22 -83 129 -83 141 0 3 12 6 26 6 15 0 34 10 44 23
10 12 22 18 26 14 5 -4 2 -12 -6 -17 -8 -5 -11 -12 -8 -16 7 -7 38 19 38 33 1
4 10 19 21 32 27 33 48 14 32 -29 -8 -21 -8 -30 1 -34 6 -2 3 -5 -6 -5 -9 -1
-20 4 -23 9 -4 6 -11 8 -16 4 -16 -9 -1 -21 36 -28 36 -7 160 -110 150 -126
-3 -4 -34 -16 -70 -25 -42 -12 -66 -24 -70 -35 -8 -25 -89 -110 -104 -110 -13
0 49 83 84 112 19 17 17 17 -46 11 -78 -7 -101 3 -185 79 -32 29 -54 47 -50
40 4 -7 -2 -25 -13 -41 -20 -28 -21 -42 -21 -377 0 -191 -3 -344 -6 -341 -4 3
-6 110 -5 237 1 150 -2 230 -9 230 -6 0 -10 -52 -10 -140 l0 -140 -47 0 c-25
0 -43 3 -39 7 4 4 22 6 40 5 l33 -2 0 67 c0 38 -2 60 -5 51 -2 -10 -10 -18
-17 -18 -8 0 -16 -12 -18 -27 -4 -26 -4 -26 -6 5 0 21 -6 32 -16 32 -9 0 -12
-6 -9 -15 4 -8 2 -15 -4 -15 -13 0 -25 90 -18 132 5 25 4 28 -3 13 -8 -17 -10
-15 -10 13 -1 28 4 35 34 48 40 16 85 19 85 4 0 -5 3 -10 8 -10 4 0 6 24 4 52
-4 73 13 264 28 316 11 37 10 46 -2 58 -8 9 -22 12 -32 8 -14 -5 -16 -13 -11
-38 10 -43 15 -226 7 -226 -4 0 -16 16 -26 35 -11 19 -23 35 -27 35 -4 0 -11
-26 -15 -57 -3 -32 -14 -71 -22 -88 -9 -16 -17 -32 -17 -35 -3 -16 -37 -71
-42 -67 -3 3 5 21 17 39 l22 33 -29 -32 c-37 -42 -74 -104 -50 -84 11 9 17 10
18 2 1 -6 3 -15 4 -21 1 -5 3 -18 4 -27 1 -16 3 -16 11 -3 13 20 13 33 0 25
-5 -3 -7 0 -4 8 3 8 1 18 -5 22 -13 7 -15 25 -3 25 9 0 25 -47 37 -104 6 -28
6 -29 -17 -14 -28 18 -101 35 -189 44 -59 5 -74 3 -128 -22 -34 -15 -68 -36
-76 -47 -13 -19 -11 -23 18 -44 30 -23 37 -24 120 -18 65 5 87 4 87 -5 0 -7
-9 -10 -22 -7 -13 2 -34 1 -48 -3 l-25 -8 25 -1 c21 -1 22 -3 8 -11 -18 -11
-80 -2 -73 11 3 4 -14 6 -37 4 -25 -2 -37 -1 -29 4 8 6 9 11 3 15 -13 8 -25
-10 -16 -25 3 -6 15 -9 25 -6 10 3 19 1 21 -5 7 -20 127 -18 181 2 64 25 65
25 38 1 -20 -18 -21 -20 -4 -24 10 -3 -9 -5 -42 -6 -42 -1 -86 -12 -144 -35
-46 -18 -78 -35 -71 -38 7 -2 -11 -18 -40 -36 -29 -18 -55 -31 -57 -28 -3 3 9
13 26 24 l31 19 -26 20 c-30 24 -18 38 20 23 14 -5 26 -8 26 -6 0 5 -139 86
-147 86 -2 0 -2 -8 1 -17 6 -20 11 -51 20 -108 3 -22 -3 -6 -14 35 -10 41 -23
91 -29 110 -14 50 -24 148 -12 131 6 -10 10 -10 16 -1 4 7 -1 13 -14 17 -27 7
-28 48 -2 63 26 13 27 13 28 -10 1 -11 -2 -20 -8 -20 -5 0 -9 6 -10 13 0 6 -4
3 -8 -8 -5 -12 -4 -23 3 -27 16 -11 28 -10 21 1 -3 5 -1 12 5 16 5 3 10 1 10
-6 0 -7 3 -10 6 -6 4 3 3 14 -1 24 -13 29 -14 43 -4 43 5 0 9 -8 10 -17 1 -11
4 -9 8 7 6 21 18 28 76 44 72 19 246 27 297 13 l26 -7 -19 40 c-23 47 -23 61
-5 120 26 84 45 118 95 169 27 28 41 47 31 41 -13 -7 -21 -6 -30 5 -18 22 -8
27 54 29 62 1 62 14 1 17 -22 1 -47 7 -55 13 -13 10 -13 9 -1 -6 12 -16 11
-18 -10 -18 -30 0 -269 88 -288 106 -13 12 -5 18 51 44 37 16 86 33 110 36 24
4 55 13 70 20 55 28 94 19 155 -38 47 -44 52 -47 30 -17 -32 43 -33 49 -8 49
11 0 26 7 34 15 9 9 17 11 19 4 4 -13 88 47 87 64 0 9 -2 9 -6 0 -7 -18 -38
-16 -53 2 -9 10 -9 15 -1 15 6 0 11 -5 11 -11 0 -7 7 -8 18 -4 9 4 23 8 30 8
6 0 12 4 12 7 0 4 17 20 38 35 l37 28 -39 -41 c-22 -23 -37 -44 -34 -47 3 -3
14 4 25 17 41 50 144 139 156 135 6 -2 17 -26 24 -53z m-143 20 c3 -8 2 -12
-4 -9 -6 3 -10 10 -10 16 0 14 7 11 14 -7z m1472 -11 c12 -58 26 -81 51 -88
21 -5 23 -9 13 -18 -10 -9 -14 -9 -17 1 -3 6 -14 12 -25 12 -13 0 -18 5 -15
14 3 8 0 17 -7 19 -8 3 -12 15 -9 30 3 14 0 28 -6 31 -14 9 -14 26 -1 26 5 0
12 -12 16 -27z m-1491 -13 c4 -6 -1 -7 -11 -3 -13 5 -15 3 -9 -7 5 -8 4 -11
-3 -6 -6 3 -18 -4 -26 -16 -9 -12 -16 -18 -16 -13 0 11 41 55 51 55 4 0 11 -4
14 -10z m-320 -45 c61 -16 94 -33 40 -21 -16 4 -54 12 -82 18 -29 5 -53 14
-53 20 0 5 8 7 18 4 10 -3 44 -13 77 -21z m1360 5 c-3 -5 -12 -10 -18 -10 -7
0 -6 4 3 10 19 12 23 12 15 0z m150 0 c3 -5 1 -10 -4 -10 -6 0 -11 5 -11 10 0
6 2 10 4 10 3 0 8 -4 11 -10z m-1268 -15 c0 -8 -4 -15 -9 -15 -10 0 -11 14 -1
23 9 10 10 9 10 -8z m1076 8 c-7 -2 -19 -2 -25 0 -7 3 -2 5 12 5 14 0 19 -2
13 -5z m-1389 -47 c1 -19 -2 -32 -6 -29 -5 2 -8 20 -8 40 0 46 13 36 14 -11z
m1669 5 c26 -19 47 -36 47 -39 0 -2 -10 3 -22 12 -13 9 -31 19 -40 23 -10 3
-18 9 -18 14 0 5 -6 6 -14 3 -7 -3 -16 1 -19 9 -9 23 14 15 66 -22z m207 16
c0 -7 9 -18 20 -25 12 -7 18 -17 15 -22 -8 -13 26 -13 59 0 14 5 26 6 26 1 0
-5 -8 -12 -17 -15 -15 -6 -15 -8 -3 -17 21 -14 -18 -3 -103 30 -37 14 -62 28
-55 30 7 2 17 9 21 15 6 7 7 4 3 -7 -4 -12 -2 -17 6 -14 7 2 12 14 11 26 -2
13 1 20 7 16 6 -3 10 -12 10 -18z m189 -21 c-2 -2 -17 2 -34 10 -16 8 -22 12
-12 9 9 -2 17 1 17 7 0 8 7 6 17 -5 9 -9 15 -18 12 -21z m-489 14 c0 -5 -4
-10 -10 -10 -5 0 -10 5 -10 10 0 6 5 10 10 10 6 0 10 -4 10 -10z m-1342 -7
c-10 -2 -28 -2 -40 0 -13 2 -5 4 17 4 22 1 32 -1 23 -4z m1057 -23 c3 -5 1
-10 -4 -10 -6 0 -11 5 -11 10 0 6 2 10 4 10 3 0 8 -4 11 -10z m-996 -3 c-2 -2
-12 -9 -21 -16 -15 -11 -18 -11 -18 1 0 7 10 14 21 15 12 1 20 1 18 0z m1381
-17 c0 -5 -2 -10 -4 -10 -3 0 -8 5 -11 10 -3 6 -1 10 4 10 6 0 11 -4 11 -10z
m483 -73 c4 -10 -2 -13 -21 -9 -24 5 -25 6 -7 13 11 4 21 8 21 8 1 1 4 -5 7
-12z m44 7 c-3 -3 -12 -4 -19 -1 -8 3 -5 6 6 6 11 1 17 -2 13 -5z m693 -4 c0
-5 -8 -10 -17 -10 -15 0 -16 2 -3 10 19 12 20 12 20 0z m-1310 -10 c0 -5 -4
-10 -10 -10 -5 0 -10 5 -10 10 0 6 5 10 10 10 6 0 10 -4 10 -10z m930 -32 c0
-16 -3 -19 -11 -11 -6 6 -8 16 -5 22 11 17 16 13 16 -11z m-845 2 c3 -5 1 -10
-4 -10 -6 0 -11 5 -11 10 0 6 2 10 4 10 3 0 8 -4 11 -10z m799 -1 c-3 -6 0
-15 7 -20 8 -5 10 -9 4 -9 -5 0 -17 5 -25 10 -13 9 -13 11 0 20 20 13 23 12
14 -1z m-644 -9 c0 -5 -4 -10 -10 -10 -5 0 -10 5 -10 10 0 6 5 10 10 10 6 0
10 -4 10 -10z m600 0 c0 -5 -4 -10 -10 -10 -5 0 -10 5 -10 10 0 6 5 10 10 10
6 0 10 -4 10 -10z m397 -6 c-3 -3 -12 -4 -19 -1 -8 3 -5 6 6 6 11 1 17 -2 13
-5z m-3607 -154 c-32 -78 -59 -126 -60 -103 0 7 15 45 34 85 19 40 37 84 42
98 4 14 9 19 12 12 2 -7 -10 -48 -28 -92z m1388 50 c-7 -10 -14 -17 -17 -15
-4 4 18 35 25 35 2 0 -1 -9 -8 -20z m-1322 -45 c-4 -19 -14 -47 -22 -62 -15
-27 -16 -27 -10 -3 6 33 30 100 35 100 2 0 0 -16 -3 -35z m2704 15 c0 -5 -4
-10 -10 -10 -5 0 -10 5 -10 10 0 6 5 10 10 10 6 0 10 -4 10 -10z m-1679 -13
c-1 -12 -15 -9 -19 4 -3 6 1 10 8 8 6 -3 11 -8 11 -12z m-241 -52 c-23 -24
-25 -25 -37 -9 -18 25 -17 29 15 40 39 15 50 -1 22 -31z m-50 -9 c11 -22 10
-27 -16 -50 -30 -26 -44 -32 -44 -18 0 4 -3 17 -6 29 -4 14 1 28 15 42 27 27
35 26 51 -3z m2130 -6 c0 -5 -4 -10 -10 -10 -5 0 -10 5 -10 10 0 6 5 10 10 10
6 0 10 -4 10 -10z m-3600 -31 c0 -5 -4 -9 -10 -9 -5 0 -10 7 -10 16 0 8 5 12
10 9 6 -3 10 -10 10 -16z m-60 -24 c0 -8 -4 -15 -10 -15 -5 0 -10 7 -10 15 0
8 5 15 10 15 6 0 10 -7 10 -15z m1403 -58 c60 -126 74 -164 61 -164 -8 0 -12
2 -10 4 2 3 -11 34 -30 71 -18 37 -34 75 -34 85 0 9 -3 17 -7 17 -3 0 -15 -8
-27 -17 -20 -18 -20 -18 0 9 10 15 22 28 25 28 4 0 14 -15 22 -33z m1962 23
c3 -5 1 -10 -4 -10 -6 0 -11 5 -11 10 0 6 2 10 4 10 3 0 8 -4 11 -10z m-1471
-91 c-9 -11 -15 -21 -12 -24 3 -3 11 1 18 10 11 13 17 10 46 -19 33 -33 45
-54 24 -41 -5 3 -10 -1 -10 -10 0 -9 -4 -13 -10 -10 -5 3 -10 1 -10 -5 0 -20
-15 -7 -64 52 -49 61 -53 76 -33 109 12 19 13 19 40 -12 27 -29 28 -32 11 -50z
m466 21 c9 -8 15 -22 12 -30 -3 -8 -1 -12 3 -7 5 4 15 -7 22 -24 16 -40 16
-46 -1 -52 -11 -4 -13 -1 -9 10 5 12 3 14 -7 8 -8 -5 -11 -4 -7 2 3 5 -7 37
-24 71 -28 61 -39 96 -17 57 6 -11 19 -27 28 -35z m-2040 19 c0 -6 -4 -7 -10
-4 -5 3 -10 1 -10 -4 0 -6 -5 -11 -10 -11 -7 0 -7 7 0 20 11 20 30 19 30 -1z
m1438 -54 c-27 -32 -32 -26 -23 26 l7 43 19 -22 c18 -22 17 -24 -3 -47z m1412
44 c0 -6 -4 -7 -10 -4 -5 3 -10 11 -10 16 0 6 5 7 10 4 6 -3 10 -11 10 -16z
m-2989 -2 c-1 -12 -15 -9 -19 4 -3 6 1 10 8 8 6 -3 11 -8 11 -12z m1117 -40
c-8 -16 -7 -18 9 -13 16 5 39 -19 61 -66 2 -5 -10 -8 -27 -8 -28 0 -34 5 -55
53 -26 59 -25 83 4 65 15 -9 16 -16 8 -31z m1002 11 c0 -30 -1 -31 -16 -16 -9
9 -14 24 -11 32 11 27 27 17 27 -16z m-2340 2 c0 -5 -7 -10 -15 -10 -8 0 -15
5 -15 10 0 6 7 10 15 10 8 0 15 -4 15 -10z m320 0 c0 -5 -4 -10 -10 -10 -5 0
-10 5 -10 10 0 6 5 10 10 10 6 0 10 -4 10 -10z m3465 0 c3 -5 1 -10 -4 -10 -6
0 -11 5 -11 10 0 6 2 10 4 10 3 0 8 -4 11 -10z m-3485 -26 c0 -2 -7 -4 -15 -4
-8 0 -15 4 -15 10 0 5 7 7 15 4 8 -4 15 -8 15 -10z m2014 -27 c-3 -9 -16 -17
-28 -17 -17 0 -18 -2 -6 -10 8 -5 25 -7 37 -4 32 8 37 -13 27 -99 -8 -64 -11
-72 -29 -70 -133 16 -171 15 -239 -10 l-69 -25 6 54 c3 31 11 61 16 68 18 21
129 67 179 75 26 3 47 11 47 16 0 6 9 23 19 38 16 24 21 26 33 14 8 -7 11 -21
7 -30z m-2064 23 c0 -5 -4 -10 -10 -10 -5 0 -10 5 -10 10 0 6 5 10 10 10 6 0
10 -4 10 -10z m1047 -12 c-3 -8 -6 -5 -6 6 -1 11 2 17 5 13 3 -3 4 -12 1 -19z
m-51 -45 c6 -38 4 -43 -12 -43 -11 0 -29 -3 -41 -6 -21 -6 -23 -3 -23 29 0 27
6 40 28 55 33 25 39 20 48 -35z m2024 47 c0 -5 -2 -10 -4 -10 -3 0 -8 5 -11
10 -3 6 -1 10 4 10 6 0 11 -4 11 -10z m-3090 -20 c0 -11 -4 -20 -9 -20 -14 0
-23 18 -16 30 10 17 25 11 25 -10z m2160 0 c0 -5 -4 -10 -10 -10 -5 0 -10 5
-10 10 0 6 5 10 10 10 6 0 10 -4 10 -10z m60 -137 c0 -59 -3 -103 -7 -99 -4 3
-6 50 -6 104 l0 97 -12 -80 -13 -80 1 80 c2 75 10 100 29 89 4 -3 8 -53 8
-111z m-1244 76 c-2 -32 -13 -42 -56 -53 -23 -6 -23 -6 -7 7 9 8 17 18 17 24
0 9 37 53 45 53 2 0 2 -14 1 -31z m1301 -1 c-3 -8 -6 -5 -6 6 -1 11 2 17 5 13
3 -3 4 -12 1 -19z m-454 -3 c-3 -9 -8 -14 -10 -11 -3 3 -2 9 2 15 9 16 15 13
8 -4z m-9 -34 c9 -8 11 -24 5 -58 -4 -27 -8 -70 -9 -98 -1 -27 -4 -44 -7 -36
-5 11 -7 11 -15 0 -7 -11 -8 -10 -4 4 8 25 -16 47 -45 41 -16 -3 -13 0 10 10
41 20 39 20 44 -1 3 -11 5 -8 6 9 l1 27 -41 -14 c-68 -24 -69 -24 -69 61 l0
77 56 -6 c30 -3 61 -10 68 -16z m-2134 -1 c0 -5 -5 -10 -11 -10 -5 0 -7 5 -4
10 3 6 8 10 11 10 2 0 4 -4 4 -10z m2702 -30 c3 -17 1 -33 -4 -36 -4 -3 -8 1
-8 8 0 7 -3 23 -6 36 -4 12 -2 22 4 22 5 0 12 -14 14 -30z m404 -52 c23 -16
51 -46 63 -67 24 -44 29 -77 6 -47 -8 10 -12 22 -10 27 3 4 -1 6 -7 5 -26 -3
-36 -17 -31 -39 4 -18 3 -19 -6 -7 -6 8 -8 23 -5 33 12 38 -12 14 -36 -36 -20
-42 -30 -53 -52 -55 -28 -3 -28 -3 -28 57 0 74 -7 96 -26 80 -11 -9 -14 -5
-14 22 0 19 3 51 6 71 l7 37 46 -26 c25 -15 64 -40 87 -55z m-473 0 c6 -42 -5
-126 -22 -163 -25 -59 -35 -74 -45 -68 -7 4 -6 8 2 11 7 2 9 9 6 14 -4 7 -2 8
4 4 6 -4 11 1 11 11 0 10 7 47 15 82 9 38 12 84 9 114 -4 33 -3 48 4 44 6 -4
13 -26 16 -49z m-1907 -37 c-51 -69 -66 -111 -66 -184 0 -44 -5 -68 -15 -77
-12 -10 -14 -1 -10 72 3 45 12 103 20 128 18 55 63 110 88 110 16 0 13 -8 -17
-49z m1829 -158 c-21 -46 -28 -55 -35 -42 -6 11 -3 34 11 68 11 29 23 80 26
114 l7 62 9 -72 c8 -67 7 -77 -18 -130z m-1795 143 c-10 -24 -30 -63 -45 -86
-20 -32 -24 -45 -15 -55 9 -11 8 -19 -3 -35 -14 -20 -15 -17 -13 47 1 55 6 75
26 103 20 29 58 68 67 70 1 0 -6 -20 -17 -44z m1540 24 c-12 -12 -33 -20 -52
-20 -34 0 -34 8 0 15 12 2 30 8 39 14 29 17 35 13 13 -9z m45 10 c3 -5 1 -10
-4 -10 -6 0 -11 5 -11 10 0 6 2 10 4 10 3 0 8 -4 11 -10z m138 -20 c-5 -19
-23 -29 -23 -12 0 7 20 32 26 32 1 0 0 -9 -3 -20z m-789 4 c27 -4 35 -9 25
-15 -8 -5 -21 -7 -29 -4 -43 11 -130 15 -130 5 0 -5 8 -10 18 -11 9 0 12 -3 5
-5 -7 -3 -22 0 -35 7 -22 12 -22 12 -3 19 25 10 99 11 149 4z m1592 -53 c-4
-6 -13 -11 -19 -11 -7 0 -6 4 3 10 12 7 11 12 -5 32 l-19 23 23 -21 c13 -12
20 -27 17 -33z m-1771 29 c-3 -5 -12 -10 -18 -10 -7 0 -6 4 3 10 19 12 23 12
15 0z m200 -9 c34 -7 35 -9 10 -9 -16 0 -43 4 -60 8 -42 11 -1 11 50 1z m492
3 c-3 -3 -12 -4 -19 -1 -8 3 -5 6 6 6 11 1 17 -2 13 -5z m38 -4 c-3 -5 -11
-10 -16 -10 -6 0 -7 5 -4 10 3 6 11 10 16 10 6 0 7 -4 4 -10z m-88 -22 c-3 -8
-6 -5 -6 6 -1 11 2 17 5 13 3 -3 4 -12 1 -19z m130 16 c-3 -3 -12 -4 -19 -1
-8 3 -5 6 6 6 11 1 17 -2 13 -5z m240 -31 c-3 -10 -5 -4 -5 12 0 17 2 24 5 18
2 -7 2 -21 0 -30z m-1030 21 c19 -5 20 -8 8 -20 -16 -16 -29 -19 -20 -4 3 6
-4 14 -17 19 -26 11 -5 14 29 5z m90 0 c-3 -3 -12 -4 -19 -1 -8 3 -5 6 6 6 11
1 17 -2 13 -5z m189 -21 c-10 -10 -19 5 -10 18 6 11 8 11 12 0 2 -7 1 -15 -2
-18z m559 17 c-3 -5 -12 -10 -18 -10 -7 0 -6 4 3 10 19 12 23 12 15 0z m112
-15 c23 0 37 -3 30 -7 -19 -12 -59 -9 -92 7 -23 11 -24 13 -5 7 14 -4 44 -7
67 -7z m253 8 c0 -22 -22 -83 -30 -83 -4 0 -6 -9 -3 -19 3 -11 0 -35 -6 -54
-39 -118 -27 -263 27 -332 11 -14 24 -40 27 -58 4 -18 12 -38 18 -45 5 -7 7
-15 4 -19 -4 -3 -20 24 -37 60 -17 37 -34 67 -39 67 -8 0 -41 60 -41 75 0 3 6
3 13 0 6 -4 4 0 -5 7 -9 8 -18 30 -21 49 -2 22 -5 11 -6 -31 -2 -49 -5 -59
-11 -40 -13 41 -11 122 5 165 14 40 17 40 17 -3 0 -20 1 -20 5 -2 2 11 9 20
14 20 6 0 3 8 -7 18 -16 16 -16 17 -1 20 9 2 17 8 17 13 0 6 -4 7 -10 4 -5 -3
-10 3 -10 15 0 13 4 19 12 14 7 -4 8 -3 4 5 -4 6 1 31 12 54 23 49 37 89 34
100 -1 4 3 7 8 7 6 0 10 -3 10 -7z m452 -28 c-6 -34 -12 -32 -12 6 0 16 4 28
9 25 4 -3 6 -17 3 -31z m-909 18 c-7 -2 -19 -2 -25 0 -7 3 -2 5 12 5 14 0 19
-2 13 -5z m-496 -9 c-3 -3 -12 -4 -19 -1 -8 3 -5 6 6 6 11 1 17 -2 13 -5z
m1561 -19 c-3 -3 -9 2 -12 12 -6 14 -5 15 5 6 7 -7 10 -15 7 -18z m-3308 5 c0
-5 -5 -10 -11 -10 -5 0 -7 5 -4 10 3 6 8 10 11 10 2 0 4 -4 4 -10z m1715 -8
c-3 -3 -11 0 -18 7 -9 10 -8 11 6 5 10 -3 15 -9 12 -12z m131 9 c-7 -11 -66
-20 -66 -10 0 8 24 16 53 18 10 0 16 -3 13 -8z m579 -11 c30 -8 30 -8 -8 -9
-24 -1 -36 -5 -32 -11 4 -6 16 -8 27 -4 14 4 18 2 14 -5 -4 -6 -2 -11 5 -11 7
0 10 -2 8 -4 -2 -3 -26 0 -52 6 -40 8 -46 12 -36 24 9 11 7 14 -9 14 -12 0
-23 4 -26 9 -6 10 59 4 109 -9z m95 0 c0 -5 -5 -10 -11 -10 -5 0 -7 5 -4 10 3
6 8 10 11 10 2 0 4 -4 4 -10z m587 -12 c-3 -8 -6 -5 -6 6 -1 11 2 17 5 13 3
-3 4 -12 1 -19z m-1342 2 c-3 -5 -12 -10 -18 -10 -7 0 -6 4 3 10 19 12 23 12
15 0z m725 0 c0 -5 -5 -10 -11 -10 -5 0 -7 5 -4 10 3 6 8 10 11 10 2 0 4 -4 4
-10z m-372 -25 c-1 -14 -6 -25 -11 -25 -5 0 -6 7 -3 16 3 9 6 20 6 25 0 5 2 9
5 9 3 0 4 -11 3 -25z m212 15 c0 -5 -4 -10 -10 -10 -5 0 -10 5 -10 10 0 6 5
10 10 10 6 0 10 -4 10 -10z m-439 -23 c-10 -9 -11 -8 -5 6 3 10 9 15 12 12 3
-3 0 -11 -7 -18z m1324 -73 c10 -99 3 -114 -46 -114 -21 0 -39 5 -39 10 0 6
14 48 32 93 18 45 31 89 30 97 -2 13 -2 13 7 0 5 -7 13 -46 16 -86z m-977 79
c-10 -2 -26 -2 -35 0 -10 3 -2 5 17 5 19 0 27 -2 18 -5z m867 -3 c3 -5 1 -10
-4 -10 -6 0 -11 5 -11 10 0 6 2 10 4 10 3 0 8 -4 11 -10z m-1078 -22 c-3 -8
-6 -5 -6 6 -1 11 2 17 5 13 3 -3 4 -12 1 -19z m473 8 c0 -8 -5 -18 -12 -22 -8
-5 -9 -2 -5 10 6 14 3 16 -16 11 -17 -5 -19 -4 -7 4 21 15 40 13 40 -3z m-410
-12 c0 -2 -12 -4 -26 -4 -14 0 -23 4 -20 9 6 8 46 4 46 -5z m-1285 -16 c-3
-13 -7 -59 -7 -103 -1 -47 -4 -71 -9 -60 -16 42 -6 185 13 185 6 0 7 -10 3
-22z m551 -12 c8 -9 8 -15 -2 -24 -8 -7 -15 -8 -19 -2 -3 6 0 10 7 10 7 0 0 9
-17 21 -27 19 -28 20 -5 13 13 -3 29 -12 36 -18z m1971 -8 c-3 -8 -6 -5 -6 6
-1 11 2 17 5 13 3 -3 4 -12 1 -19z m-833 -45 c-17 -13 -23 -23 -15 -23 8 0 28
12 43 27 15 15 28 22 28 16 0 -13 -116 -93 -134 -93 -7 0 -8 3 0 8 5 4 23 24
38 44 16 21 33 35 39 31 5 -3 7 -1 4 5 -4 5 -4 18 -1 27 7 16 8 16 17 -1 8
-14 4 -22 -19 -41z m107 30 c-12 -20 -14 -14 -5 12 4 9 9 14 11 11 3 -2 0 -13
-6 -23z m-1259 -60 c-3 -16 -7 -22 -10 -15 -4 13 4 42 11 42 2 0 2 -12 -1 -27z
m-662 -10 c-5 -10 -21 -47 -34 -83 -15 -38 -25 -56 -25 -42 -1 12 8 40 19 62
22 44 26 65 8 54 -7 -4 -8 -3 -4 5 4 6 11 9 16 6 5 -3 11 -1 15 5 11 18 16 11
5 -7z m86 -110 c8 -102 -4 -104 -21 -4 -13 74 -9 153 6 114 4 -12 11 -61 15
-110z m3464 117 c0 -5 -4 -10 -10 -10 -5 0 -10 5 -10 10 0 6 5 10 10 10 6 0
10 -4 10 -10z m567 -22 c-3 -7 -5 -2 -5 12 0 14 2 19 5 13 2 -7 2 -19 0 -25z
m-3596 -5 c-12 -20 -14 -14 -5 12 4 9 9 14 11 11 3 -2 0 -13 -6 -23z m3679 23
c0 -3 -4 -8 -10 -11 -5 -3 -10 -1 -10 4 0 6 5 11 10 11 6 0 10 -2 10 -4z
m-2948 -70 c6 -50 1 -56 -45 -56 -134 0 -153 31 -42 67 39 12 73 22 76 22 4 1
9 -14 11 -33z m2880 -6 c3 -16 1 -35 -4 -42 -4 -8 -8 4 -8 30 0 49 6 55 12 12z
m-3592 -32 c0 -5 -10 -7 -22 -7 -17 1 -18 3 -6 6 11 3 15 11 12 21 -5 15 -4
15 5 2 6 -8 11 -18 11 -22z m3483 -3 c-3 -9 -8 -14 -10 -11 -3 3 -2 9 2 15 9
16 15 13 8 -4z m176 -29 c14 -57 14 -57 -4 -50 -11 5 -14 1 -9 -12 5 -18 5
-18 -9 -1 -9 10 -18 14 -21 8 -3 -5 1 -17 11 -26 16 -16 17 -16 30 1 7 9 15
15 19 12 8 -8 24 -77 23 -103 0 -22 4 -26 -72 69 -52 64 -56 70 -57 88 0 11 5
15 15 12 10 -4 15 0 15 12 0 11 4 15 8 9 14 -20 34 -16 27 5 -3 11 -2 20 3 20
5 0 15 -20 21 -44z m-2981 -1 c17 0 32 -2 32 -5 0 -3 -30 -16 -67 -29 -38 -13
-74 -26 -80 -29 -9 -3 -13 8 -13 37 l0 41 48 -8 c26 -3 62 -7 80 -7z m468 -31
c1 -47 -5 -66 -17 -58 -15 9 -11 106 4 101 6 -2 12 -21 13 -43z m-1146 28 c0
-5 -7 -9 -15 -9 -8 0 -15 4 -15 9 0 4 7 8 15 8 8 0 15 -4 15 -8z m410 -41 c0
-28 -4 -53 -10 -56 -6 -4 -10 15 -10 49 0 31 5 56 10 56 6 0 10 -22 10 -49z
m-1410 35 c0 -2 -8 -10 -17 -17 -16 -13 -17 -12 -4 4 13 16 21 21 21 13z
m4547 -18 c-3 -8 -6 -5 -6 6 -1 11 2 17 5 13 3 -3 4 -12 1 -19z m-4150 -55
c-2 -16 -4 -5 -4 22 0 28 2 40 4 28 2 -13 2 -35 0 -50z m2656 61 c3 -4 2 -16
-4 -26 -13 -24 -35 -9 -26 16 7 17 19 21 30 10z m-2059 -41 c-9 -49 -11 -53
-35 -53 -24 0 -24 15 1 42 11 12 20 28 20 35 0 7 5 13 10 13 7 0 8 -14 4 -37z
m2016 22 c0 -21 -36 -33 -101 -35 -72 -2 -71 -3 -59 19 8 15 23 21 63 24 28 2
62 4 75 5 14 1 22 -4 22 -13z m-2356 -44 c-10 -17 -22 -31 -26 -31 -4 0 2 16
14 35 11 20 23 34 25 31 3 -2 -3 -18 -13 -35z m1166 -50 c1 -9 7 -32 14 -52
l13 -36 -29 16 c-25 14 -28 22 -28 65 0 42 2 47 15 36 8 -7 15 -20 15 -29z
m1567 17 c-3 -8 -6 -5 -6 6 -1 11 2 17 5 13 3 -3 4 -12 1 -19z m-2959 -43 c12
-25 20 -45 18 -45 -2 0 -16 20 -29 45 -14 25 -22 45 -18 45 4 0 17 -20 29 -45z
m969 23 c-3 -8 -6 -5 -6 6 -1 11 2 17 5 13 3 -3 4 -12 1 -19z m350 -50 c-2
-13 -4 -3 -4 22 0 25 2 35 4 23 2 -13 2 -33 0 -45z m1447 36 c3 -8 2 -12 -4
-9 -6 3 -10 10 -10 16 0 14 7 11 14 -7z m203 -6 c-3 -8 -6 -5 -6 6 -1 11 2 17
5 13 3 -3 4 -12 1 -19z m-2872 -33 c-39 -32 -56 -32 -21 0 15 14 32 25 39 25
7 -1 -1 -12 -18 -25z m317 -15 l-9 -24 -5 22 c-4 12 -2 20 3 16 5 -3 9 3 10
13 0 10 3 13 5 7 3 -6 1 -21 -4 -34z m3628 30 c0 -5 -2 -10 -4 -10 -3 0 -8 5
-11 10 -3 6 -1 10 4 10 6 0 11 -4 11 -10z m-1063 -32 c-3 -7 -5 -2 -5 12 0 14
2 19 5 13 2 -7 2 -19 0 -25z m-407 -63 l0 -85 -90 0 -90 0 0 68 c0 37 4 72 8
79 5 7 40 13 87 16 44 1 81 4 83 5 1 1 2 -36 2 -83z m50 6 c0 -73 -8 -99 -27
-88 -5 3 -7 41 -5 86 3 62 7 81 18 81 11 0 14 -17 14 -79z m-577 -26 c5 -26 3
-24 -12 10 -28 59 -37 99 -13 55 11 -19 22 -48 25 -65z m-562 62 c-10 -9 -11
-8 -5 6 3 10 9 15 12 12 3 -3 0 -11 -7 -18z m2782 -14 c3 -15 -1 -32 -8 -40
-17 -17 -28 -17 -19 0 4 7 3 9 -2 4 -5 -5 -9 -12 -9 -16 0 -4 -23 -33 -51 -65
l-50 -57 -30 15 c-16 9 -60 28 -99 42 -82 31 -92 39 -99 79 l-6 30 11 -28 c10
-27 14 -28 60 -25 26 2 51 7 55 11 4 4 16 7 27 7 24 0 178 49 192 61 15 15 22
10 28 -18z m-1276 -15 c-3 -7 -5 -2 -5 12 0 14 2 19 5 13 2 -7 2 -19 0 -25z
m-2938 13 c11 -7 7 -13 -15 -27 -16 -11 -37 -28 -47 -39 -18 -20 -18 -20 -6 5
18 37 40 70 48 70 3 0 12 -4 20 -9z m1437 -10 c-4 -5 8 -21 25 -35 17 -14 27
-26 22 -26 -15 0 -64 56 -56 63 9 10 15 9 9 -2z m379 -42 c-19 -53 -21 -118
-6 -190 12 -56 44 -109 58 -96 4 5 3 11 -3 15 -11 7 -34 45 -34 56 0 3 29 6
65 6 64 0 77 -7 52 -29 -8 -6 -22 -29 -32 -51 -10 -22 -21 -40 -24 -40 -15 0
-85 77 -97 107 -21 50 -18 152 7 217 26 66 37 70 14 5z m1211 29 c4 -7 4 -10
-1 -6 -4 4 -15 2 -24 -5 -14 -11 -14 -10 -2 6 16 20 18 21 27 5z m-1871 -7 c3
-5 2 -12 -3 -15 -5 -3 -9 1 -9 9 0 17 3 19 12 6z m1805 -145 c-7 -18 -9 -15
-10 14 -1 19 -3 55 -5 80 -3 41 -3 40 10 -14 8 -36 10 -68 5 -80z m21 101
c-10 -9 -11 -8 -5 6 3 10 9 15 12 12 3 -3 0 -11 -7 -18z m-3377 -56 c-21 -28
-39 -49 -41 -47 -2 2 13 26 34 54 20 28 39 49 41 47 2 -2 -13 -26 -34 -54z
m2650 -2 c9 -92 8 -109 -9 -109 -12 0 -15 16 -15 85 0 99 14 113 24 24z m-313
-29 c11 -39 19 -73 17 -75 -3 -3 -99 -8 -125 -6 -9 1 -13 17 -13 49 l1 47 14
-40 c8 -22 15 -41 15 -42 0 -2 5 -3 10 -3 6 0 10 15 10 34 0 54 11 96 26 96 8
0 14 5 14 12 0 24 12 -2 31 -72z m-1213 61 c10 -1 12 -19 10 -68 l-3 -68 -97
-3 c-109 -3 -104 -7 -110 83 l-3 50 80 5 c44 3 87 4 95 3 8 -1 21 -2 28 -2z
m186 -74 c-4 -37 -11 -67 -15 -67 -11 0 -12 133 -2 144 16 16 23 -16 17 -77z
m-409 61 c2 -7 6 -40 7 -73 l3 -60 -60 0 -60 0 -6 50 c-8 61 7 82 60 88 20 2
40 4 44 5 4 1 10 -4 12 -10z m1143 -65 c-2 -60 -6 -78 -17 -78 -11 0 -14 15
-12 70 3 73 6 85 22 85 6 0 9 -31 7 -77z m-1538 18 c0 -17 -25 -31 -57 -31
-21 0 -16 58 5 63 25 5 52 -11 52 -32z m2456 -77 c-3 -8 -16 -14 -28 -13 -13
0 -17 3 -10 6 6 2 12 14 12 26 0 18 -2 19 -10 7 -9 -13 -10 -13 -11 0 -1 8 -5
2 -9 -15 -7 -29 -8 -29 -9 -4 -2 41 19 90 43 98 19 8 21 5 24 -42 2 -27 1 -56
-2 -63z m244 81 c0 -5 -5 -3 -10 5 -5 8 -10 20 -10 25 0 6 5 3 10 -5 5 -8 10
-19 10 -25z m-314 -7 c-8 -18 -17 -41 -20 -51 -3 -10 -10 -15 -16 -12 -6 4
-10 -5 -10 -19 0 -23 -4 -26 -34 -26 -39 0 -46 12 -46 74 0 23 -5 47 -12 54
-9 9 6 12 70 12 l82 0 -14 -32z m-969 0 c-3 -8 -6 -5 -6 6 -1 11 2 17 5 13 3
-3 4 -12 1 -19z m-1507 -13 c0 -10 -10 -15 -27 -15 l-28 0 25 14 c14 8 26 14
28 15 1 1 2 -6 2 -14z m2804 -11 c3 -8 2 -12 -4 -9 -6 3 -10 10 -10 16 0 14 7
11 14 -7z m-2709 -77 c8 -79 -4 -88 -34 -24 -12 23 -18 31 -15 17 4 -14 3 -22
-1 -18 -4 3 -10 23 -15 42 -8 34 -6 36 24 44 17 5 32 8 33 8 1 -1 4 -32 8 -69z
m-82 -19 c5 -35 4 -38 -19 -36 -24 2 -27 7 -39 65 -5 28 -3 32 17 35 25 3 32
-7 41 -64z m2942 26 c0 -14 -3 -28 -7 -30 -10 -7 -22 42 -13 56 10 16 18 5 20
-26z m1197 -16 c-8 -8 -9 -4 -5 13 4 13 8 18 11 10 2 -7 -1 -18 -6 -23z
m-3433 -38 c-1 -34 -5 -62 -8 -64 -3 -2 -44 -6 -91 -7 l-85 -4 -9 59 c-7 46
-6 60 5 67 8 5 54 9 102 9 l88 0 -2 -60z m1521 12 c0 -46 -10 -82 -21 -82 -10
0 -12 113 -3 123 13 13 24 -5 24 -41z m-1736 7 c3 -17 6 -47 6 -65 l0 -34 -50
0 c-46 0 -50 2 -56 28 -3 15 -10 41 -14 59 -8 31 -7 32 28 36 81 8 79 9 86
-24z m385 -24 c-2 -54 -11 -75 -24 -55 -8 14 6 110 17 110 5 0 8 -25 7 -55z
m731 -15 c0 -47 -3 -60 -15 -60 -11 0 -15 13 -15 53 0 30 3 57 7 60 17 17 23
2 23 -53z m1219 -3 c-1 -31 -1 -31 -9 -7 -11 36 -11 52 0 45 6 -3 10 -21 9
-38z m-180 -59 c-1 -51 -5 -120 -9 -153 -5 -45 -7 -22 -7 93 0 83 4 152 8 152
5 0 9 -42 8 -92z m291 32 c0 -33 -3 -60 -7 -60 -5 0 -6 27 -5 60 5 77 12 77
12 0z m130 29 c0 -6 -4 -7 -10 -4 -5 3 -10 11 -10 16 0 6 5 7 10 4 6 -3 10
-11 10 -16z m50 11 c0 -5 -5 -10 -11 -10 -5 0 -7 5 -4 10 3 6 8 10 11 10 2 0
4 -4 4 -10z m-3373 -102 c-3 -8 -6 -5 -6 6 -1 11 2 17 5 13 3 -3 4 -12 1 -19z
m3386 -14 c-3 -9 -9 -12 -12 -7 -3 4 -10 11 -15 16 -5 4 0 7 12 7 15 0 20 -4
15 -16z m-513 -14 c0 -5 -5 -10 -11 -10 -5 0 -7 5 -4 10 3 6 8 10 11 10 2 0 4
-4 4 -10z m307 -62 c-2 -13 -4 -3 -4 22 0 25 2 35 4 23 2 -13 2 -33 0 -45z
m-3180 0 c-2 -13 -4 -5 -4 17 -1 22 1 32 4 23 2 -10 2 -28 0 -40z m3228 32 c3
-5 1 -10 -4 -10 -6 0 -11 5 -11 10 0 6 2 10 4 10 3 0 8 -4 11 -10z m-58 -117
c-3 -10 -5 -2 -5 17 0 19 2 27 5 18 2 -10 2 -26 0 -35z m-10 -55 c-3 -8 -6 -5
-6 6 -1 11 2 17 5 13 3 -3 4 -12 1 -19z"/>
<path d="M2599 4202 c5 -10 18 -25 27 -33 11 -9 9 -2 -6 19 -26 35 -36 42 -21
14z"/>
<path d="M2540 4170 c6 -11 13 -20 16 -20 2 0 0 9 -6 20 -6 11 -13 20 -16 20
-2 0 0 -9 6 -20z"/>
<path d="M2060 4090 c6 -11 17 -20 26 -20 12 0 12 4 4 20 -6 11 -17 20 -26 20
-12 0 -12 -4 -4 -20z"/>
<path d="M2020 4085 c0 -8 4 -15 10 -15 5 0 7 7 4 15 -4 8 -8 15 -10 15 -2 0
-4 -7 -4 -15z"/>
<path d="M1655 4020 c3 -5 8 -10 11 -10 2 0 4 5 4 10 0 6 -5 10 -11 10 -5 0
-7 -4 -4 -10z"/>
<path d="M1626 3958 c5 -7 2 -9 -7 -6 -10 4 -15 -1 -15 -13 0 -17 2 -17 18 -2
15 14 16 33 2 33 -3 0 -2 -5 2 -12z"/>
<path d="M2041 3913 c0 -23 5 -48 13 -55 7 -8 21 -28 30 -46 9 -18 19 -32 22
-32 3 0 -7 21 -22 48 -15 26 -30 65 -34 87 l-7 40 -2 -42z"/>
<path d="M2493 3860 c28 -75 44 -160 52 -280 4 -47 10 -107 14 -135 8 -49 8
-49 10 25 2 117 -17 246 -50 345 -17 49 -35 95 -40 100 -6 6 0 -19 14 -55z"/>
<path d="M2181 3803 c-1 -14 40 -125 50 -137 5 -5 5 4 0 20 -14 46 -50 130
-50 117z"/>
<path d="M2110 3761 c0 -5 5 -13 10 -16 6 -3 10 -2 10 4 0 5 -4 13 -10 16 -5
3 -10 2 -10 -4z"/>
<path d="M2761 3678 c-1 -12 92 -209 96 -204 2 2 -18 51 -46 107 -27 57 -50
101 -50 97z"/>
<path d="M1463 3585 c0 -33 2 -45 4 -27 2 18 2 45 0 60 -2 15 -4 0 -4 -33z"/>
<path d="M2600 3632 c0 -7 7 -26 15 -42 9 -17 12 -30 8 -30 -5 0 -3 -4 3 -8 9
-5 84 -149 113 -216 2 -5 -3 -5 -10 -1 -8 5 -11 4 -6 -1 5 -5 14 -9 20 -9 8 0
11 -20 10 -60 -2 -58 -2 -59 8 -20 5 22 13 52 17 67 l7 27 65 -55 c36 -30 74
-60 85 -66 23 -12 27 -16 -89 87 -92 82 -138 143 -206 267 -22 40 -40 67 -40
60z"/>
<path d="M2446 3573 c-6 -14 -5 -15 5 -6 7 7 10 15 7 18 -3 3 -9 -2 -12 -12z"/>
<path d="M2450 3526 c0 -8 5 -18 10 -21 6 -3 10 -28 10 -56 0 -27 5 -49 10
-49 6 0 8 10 6 23 -3 12 -8 43 -11 70 -3 26 -10 47 -16 47 -5 0 -9 -6 -9 -14z"/>
<path d="M1955 3370 c4 -79 11 -110 26 -110 12 0 12 2 -7 38 -8 18 -13 40 -10
49 2 10 1 36 -4 58 -6 32 -7 25 -5 -35z"/>
<path d="M2840 3424 c1 -10 50 -73 50 -63 0 3 -11 20 -25 39 -14 19 -25 30
-25 24z"/>
<path d="M2272 3375 c0 -16 2 -22 5 -12 2 9 2 23 0 30 -3 6 -5 -1 -5 -18z"/>
<path d="M2995 3260 c10 -11 20 -20 23 -20 3 0 -3 9 -13 20 -10 11 -20 20 -23
20 -3 0 3 -9 13 -20z"/>
<path d="M1191 3254 c0 -11 3 -14 6 -6 3 7 2 16 -1 19 -3 4 -6 -2 -5 -13z"/>
<path d="M1878 3217 c12 -21 22 -54 22 -73 0 -21 8 -42 20 -54 19 -19 20 -19
30 0 8 15 1 31 -36 87 -52 78 -67 95 -36 40z m60 -112 c-3 -3 -9 2 -12 12 -6
14 -5 15 5 6 7 -7 10 -15 7 -18z"/>
<path d="M2329 3164 c-23 -25 -23 -26 -2 -13 13 7 25 19 27 26 8 19 2 16 -25
-13z"/>
<path d="M2137 3139 c7 -7 15 -10 18 -7 3 3 -2 9 -12 12 -14 6 -15 5 -6 -5z"/>
<path d="M2369 3133 c-13 -16 -12 -17 4 -4 9 7 17 15 17 17 0 8 -8 3 -21 -13z"/>
<path d="M2005 3046 c25 -30 67 -71 93 -92 36 -28 26 -16 -38 53 -94 100 -128
124 -55 39z"/>
<path d="M1990 3097 c0 -2 6 -10 14 -16 11 -9 16 -9 22 1 4 7 4 10 -1 6 -4 -4
-14 -3 -22 3 -7 6 -13 9 -13 6z"/>
<path d="M1721 3054 c0 -11 3 -14 6 -6 3 7 2 16 -1 19 -3 4 -6 -2 -5 -13z"/>
<path d="M1530 2980 c-6 -11 -8 -20 -6 -20 3 0 10 9 16 20 6 11 8 20 6 20 -3
0 -10 -9 -16 -20z"/>
<path d="M1672 2888 c-29 -56 -50 -103 -48 -105 5 -6 60 90 86 151 36 85 15
60 -38 -46z"/>
<path d="M1145 2970 c3 -5 16 -10 28 -9 21 0 21 1 2 9 -28 12 -37 12 -30 0z"/>
<path d="M1480 2930 c-9 -6 -10 -10 -3 -10 6 0 15 5 18 10 8 12 4 12 -15 0z"/>
<path d="M2561 2714 c0 -11 3 -14 6 -6 3 7 2 16 -1 19 -3 4 -6 -2 -5 -13z"/>
<path d="M2566 2625 c3 -16 8 -81 11 -142 3 -72 9 -110 16 -106 14 8 1 177
-18 234 -8 24 -12 31 -9 14z"/>
<path d="M2790 2609 c0 -5 5 -7 10 -4 6 3 10 8 10 11 0 2 -4 4 -10 4 -5 0 -10
-5 -10 -11z"/>
<path d="M1918 2584 c-16 -8 -28 -19 -28 -24 0 -15 8 -12 30 10 22 22 60 26
78 8 8 -8 12 -8 12 -1 0 25 -52 29 -92 7z"/>
<path d="M2920 2519 c0 -5 5 -7 10 -4 6 3 10 8 10 11 0 2 -4 4 -10 4 -5 0 -10
-5 -10 -11z"/>
<path d="M2687 2055 c-7 -130 2 -206 28 -253 15 -26 16 -25 11 33 -3 33 -10
98 -16 145 -6 47 -9 111 -5 143 3 31 2 57 -3 57 -5 0 -12 -56 -15 -125z"/>
<path d="M2855 2130 c3 -14 12 -56 20 -95 9 -38 20 -79 25 -90 5 -11 18 -58
28 -105 11 -47 23 -93 27 -102 10 -25 -4 -22 -39 6 -27 21 -30 28 -29 82 l1
59 -8 -53 c-12 -77 -70 -218 -70 -170 0 8 -10 28 -22 44 -13 15 -18 25 -11 21
7 -5 9 0 6 13 -3 11 -9 18 -13 15 -4 -3 -10 5 -13 17 -4 12 -9 20 -12 17 -15
-16 29 -145 80 -233 30 -52 55 -100 55 -105 0 -50 76 64 85 127 4 31 11 49 17
46 5 -4 8 -18 5 -32 l-5 -26 18 25 c55 72 63 206 20 309 -23 53 -94 164 -146
225 -24 29 -25 29 -19 5z m86 -447 c13 -16 12 -17 -3 -4 -17 13 -22 21 -14 21
2 0 10 -8 17 -17z m-30 -10 c13 -16 12 -17 -3 -4 -17 13 -22 21 -14 21 2 0 10
-8 17 -17z m89 -14 c0 -17 -4 -28 -10 -24 -5 3 -10 17 -10 31 0 13 5 24 10 24
6 0 10 -14 10 -31z"/>
<path d="M2656 1877 c3 -10 9 -15 12 -12 3 3 0 11 -7 18 -10 9 -11 8 -5 -6z"/>
<path d="M2862 1336 c1 -14 6 -22 12 -19 5 4 7 -3 4 -15 -4 -12 -2 -20 3 -16
8 5 12 -20 13 -98 1 -14 4 -30 9 -34 4 -4 7 -17 7 -28 -1 -20 -1 -20 -20 3
-11 13 -27 49 -36 80 -19 66 -34 87 -34 48 0 -38 79 -248 101 -269 36 -35 62
-17 52 35 -4 21 -2 26 10 22 11 -5 16 5 21 47 8 61 -3 121 -34 190 -29 65 -45
71 -20 7 25 -62 36 -163 22 -199 -9 -25 -9 -25 -16 10 -13 60 -80 260 -88 260
-4 0 -7 -11 -6 -24z"/>
<path d="M2801 1060 c-2 -12 30 -104 39 -115 6 -7 19 -37 29 -66 11 -31 20
-45 20 -32 1 12 -14 54 -32 95 -18 40 -38 84 -44 98 -7 14 -12 23 -12 20z"/>
<path d="M2930 940 c0 -23 15 -27 23 -6 3 8 -1 17 -9 20 -9 4 -14 -1 -14 -14z"/>
<path d="M2896 798 c-2 -7 -9 -39 -15 -70 -10 -58 -33 -112 -76 -183 -24 -40
-35 -99 -14 -78 5 5 11 19 12 31 0 11 5 18 9 16 9 -6 55 66 50 79 -1 4 2 7 7
7 12 0 32 60 24 73 -3 6 -1 7 5 3 9 -5 12 13 12 63 0 66 -5 88 -14 59z"/>
<path d="M2807 665 c-29 -51 -46 -111 -28 -101 6 4 11 13 11 19 0 7 6 23 13
37 16 31 37 90 32 90 -2 0 -15 -20 -28 -45z"/>
<path d="M3483 2496 c3 -7 0 -19 -6 -25 -6 -6 -7 -14 -3 -18 9 -9 26 16 26 40
0 9 -5 17 -11 17 -6 0 -9 -6 -6 -14z"/>
<path d="M3445 2449 c-4 -6 -5 -12 -2 -15 2 -3 7 2 10 11 7 17 1 20 -8 4z"/>
<path d="M3468 2433 c6 -3 10 -9 7 -14 -4 -5 1 -6 9 -3 23 9 19 20 -6 21 -13
0 -17 -1 -10 -4z"/>
<path d="M3425 2410 c3 -5 13 -10 21 -10 8 0 14 -5 14 -11 0 -5 5 -7 10 -4 13
8 -13 35 -35 35 -9 0 -13 -4 -10 -10z"/>
<path d="M1173 1995 c-6 -6 -8 -18 -3 -24 5 -9 9 -5 13 10 7 28 6 31 -10 14z"/>
<path d="M1136 1828 c-21 -101 -25 -137 -20 -214 6 -83 21 -135 44 -149 12 -7
8 65 -10 169 -7 38 -10 102 -8 143 4 75 2 89 -6 51z"/>
<path d="M1172 1630 c0 -14 2 -19 5 -12 2 6 2 18 0 25 -3 6 -5 1 -5 -13z"/>
<path d="M935 1569 c-19 -41 -45 -136 -45 -167 0 -3 9 3 21 14 l21 19 -21 -36
-21 -36 21 -66 c11 -37 25 -65 30 -61 5 3 9 -2 9 -11 0 -8 15 -39 34 -68 19
-28 40 -71 47 -95 7 -23 16 -39 20 -35 18 20 81 204 98 291 l19 96 -21 41 -21
40 -11 -92 c-5 -50 -13 -95 -17 -99 -5 -4 -8 -18 -8 -30 0 -38 -15 -35 -29 4
-8 20 -26 56 -41 80 -34 52 -64 169 -57 223 3 21 3 39 1 39 -2 0 -15 -23 -29
-51z"/>
<path d="M1060 1331 c0 -6 4 -13 10 -16 6 -3 7 1 4 9 -7 18 -14 21 -14 7z"/>
<path d="M2196 2444 c-4 -10 -1 -14 6 -12 15 5 23 28 10 28 -5 0 -13 -7 -16
-16z"/>
<path d="M2285 2250 c-3 -5 -1 -10 4 -10 6 0 11 5 11 10 0 6 -2 10 -4 10 -3 0
-8 -4 -11 -10z"/>
<path d="M1838 2221 c7 -4 19 -28 27 -52 7 -24 14 -36 14 -26 1 28 -27 87 -41
87 -11 0 -11 -2 0 -9z"/>
<path d="M2230 2204 c-25 -13 -53 -22 -63 -20 -11 3 -16 2 -13 -1 3 -3 -12
-15 -34 -25 -34 -17 -40 -25 -40 -52 l1 -31 17 34 c14 28 30 39 92 63 41 16
82 36 90 44 20 20 3 15 -50 -12z"/>
<path d="M2117 2189 c7 -7 15 -10 18 -7 3 3 -2 9 -12 12 -14 6 -15 5 -6 -5z"/>
<path d="M2087 2169 c-4 -16 -3 -18 9 -8 7 6 11 15 8 20 -8 13 -11 11 -17 -12z"/>
<path d="M1880 2079 c0 -6 9 -13 20 -16 11 -3 17 -9 14 -14 -3 -5 1 -6 9 -3 8
3 31 -5 51 -17 20 -12 39 -19 41 -17 3 2 -27 21 -65 41 -39 20 -70 32 -70 26z"/>
<path d="M1850 2071 c0 -6 4 -13 10 -16 6 -3 7 1 4 9 -7 18 -14 21 -14 7z"/>
<path d="M1928 1850 c-29 -9 -113 -64 -124 -82 -4 -7 -3 -8 4 -4 21 13 132 15
133 3 0 -7 9 8 20 33 11 24 25 48 32 52 16 10 -30 9 -65 -2z"/>
<path d="M1980 1460 c0 -6 7 -10 15 -10 8 0 15 2 15 4 0 2 -7 6 -15 10 -8 3
-15 1 -15 -4z"/>
<path d="M1470 1226 c0 -2 7 -9 15 -16 9 -7 15 -8 15 -2 0 5 -7 12 -15 16 -8
3 -15 4 -15 2z"/>
<path d="M3635 2280 c3 -5 10 -10 16 -10 5 0 9 5 9 10 0 6 -7 10 -16 10 -8 0
-12 -4 -9 -10z"/>
<path d="M2722 1280 c0 -14 2 -19 5 -12 2 6 2 18 0 25 -3 6 -5 1 -5 -13z"/>
<path d="M2520 1175 c-11 -13 -10 -14 4 -9 9 3 16 10 16 15 0 13 -6 11 -20 -6z"/>
<path d="M4952 930 c-10 -16 -10 -20 1 -20 7 0 13 9 14 20 1 11 1 20 0 20 -1
0 -8 -9 -15 -20z"/>
<path d="M4675 710 c27 -12 43 -12 25 0 -8 5 -22 9 -30 9 -10 0 -8 -3 5 -9z"/>
<path d="M740 775 c-11 -13 -10 -14 4 -9 9 3 16 10 16 15 0 13 -6 11 -20 -6z"/>
<path d="M3311 624 c0 -11 3 -14 6 -6 3 7 2 16 -1 19 -3 4 -6 -2 -5 -13z"/>
<path d="M761 504 c0 -11 3 -14 6 -6 3 7 2 16 -1 19 -3 4 -6 -2 -5 -13z"/>
<path d="M699 4243 c-13 -16 -12 -17 4 -4 9 7 17 15 17 17 0 8 -8 3 -21 -13z"/>
<path d="M1775 4210 c-3 -6 1 -7 9 -4 18 7 21 14 7 14 -6 0 -13 -4 -16 -10z"/>
<path d="M119 4137 c-51 -34 -50 -64 3 -113 126 -115 163 -163 251 -320 97
-177 115 -195 33 -34 -46 91 -52 108 -42 129 8 18 8 25 0 28 -6 2 -20 11 -30
19 -17 13 -16 14 11 1 55 -26 158 -46 320 -62 180 -18 248 -35 306 -77 64 -46
115 -26 64 25 -43 42 -106 58 -275 67 -85 5 -187 14 -227 19 -70 10 -168 43
-188 62 -5 6 8 3 29 -6 38 -16 50 -16 90 1 14 5 17 4 12 -4 -4 -7 -2 -12 3
-12 6 0 11 5 11 10 0 6 7 10 16 10 8 0 13 4 10 9 -12 19 -116 83 -147 91 -19
4 -42 11 -52 15 -10 4 -17 4 -16 -1 4 -23 -3 -34 -20 -34 -31 0 -33 -16 -4
-29 23 -11 25 -10 13 3 -15 19 0 21 19 4 11 -11 12 -10 6 1 -6 11 -4 13 10 8
9 -4 24 -2 31 4 12 10 13 9 8 -5 -3 -9 -15 -16 -25 -16 -21 0 -26 -16 -7 -22
8 -3 6 -7 -5 -11 -10 -4 -16 -2 -14 5 1 7 -5 12 -13 13 -22 0 -78 33 -82 47
-3 7 2 19 11 26 14 11 13 11 -6 2 -19 -9 -30 -6 -62 14 -22 14 -43 30 -46 37
-10 15 49 2 97 -22 21 -11 44 -19 52 -19 8 0 16 -6 19 -12 2 -7 4 2 5 20 1 47
-44 75 -113 69 -27 -2 -58 -8 -67 -12 -14 -5 -18 -2 -18 12 0 22 20 43 65 66
17 9 23 16 14 17 -9 0 -31 -10 -50 -23z m190 -281 c-3 -3 -11 5 -18 17 -13 21
-12 21 5 5 10 -10 16 -20 13 -22z"/>
<path d="M160 4121 c0 -7 -4 -10 -8 -7 -4 2 -19 -4 -32 -15 -20 -15 -21 -18
-5 -12 11 3 23 11 27 17 5 7 8 6 8 -4 1 -11 3 -11 11 3 6 10 8 21 5 24 -3 4
-6 1 -6 -6z"/>
<path d="M243 3974 c-7 -7 -9 -15 -4 -18 5 -3 14 1 20 8 15 18 0 28 -16 10z"/>
<path d="M460 3535 c0 -5 5 -17 10 -25 5 -8 10 -10 10 -5 0 6 -5 17 -10 25 -5
8 -10 11 -10 5z"/>
<path d="M520 3401 c5 -11 15 -23 21 -27 6 -3 3 5 -6 20 -20 30 -30 35 -15 7z"/>
<path d="M730 3230 c0 -5 5 -10 11 -10 5 0 7 5 4 10 -3 6 -8 10 -11 10 -2 0
-4 -4 -4 -10z"/>
<path d="M720 2993 c-18 -54 -41 -116 -52 -138 l-19 -40 31 35 c16 19 29 39
27 45 -2 5 2 28 10 50 8 22 16 49 19 60 2 11 9 33 15 48 7 15 9 30 6 33 -3 3
-20 -39 -37 -93z"/>
<path d="M3605 2639 c-4 -6 -5 -12 -2 -15 2 -3 7 2 10 11 7 17 1 20 -8 4z"/>
<path d="M3627 2625 c-12 -17 -14 -26 -5 -31 7 -5 8 -3 3 6 -6 10 -4 12 8 7
12 -4 14 -2 10 10 -4 11 -2 14 5 9 8 -5 10 -2 6 8 -7 20 -5 20 -27 -9z"/>
<path d="M3810 2630 c0 -4 7 -10 15 -14 12 -4 15 -28 15 -122 0 -100 -3 -119
-17 -130 -16 -12 -12 -13 32 -13 44 0 48 1 33 13 -15 11 -18 30 -18 130 0 71
4 116 10 116 6 0 10 6 10 13 0 7 -15 12 -40 13 -22 1 -40 -2 -40 -6z"/>
<path d="M3961 2624 c-52 -37 -70 -168 -31 -232 28 -46 60 -58 110 -42 42 14
43 17 40 63 -1 18 5 34 17 42 16 13 14 14 -24 15 -24 0 -43 -4 -43 -10 0 -5 7
-10 15 -10 10 0 15 -10 15 -29 0 -60 -62 -82 -99 -35 -17 22 -21 41 -21 104 0
63 4 82 21 104 29 37 70 35 104 -6 27 -34 28 -33 10 30 -7 24 -82 28 -114 6z"/>
<path d="M4125 2630 c-3 -4 2 -10 10 -14 22 -8 22 -234 0 -242 -27 -11 -16
-24 20 -24 32 0 48 13 26 22 -5 2 -11 52 -13 111 -4 126 -7 127 80 -33 l57
-105 3 130 c2 108 5 132 19 143 9 6 15 12 12 13 -16 3 -69 3 -69 1 0 -2 7 -10
15 -18 11 -12 15 -39 15 -105 0 -49 -2 -89 -4 -89 -2 0 -30 47 -61 104 -44 80
-63 105 -81 109 -14 2 -27 1 -29 -3z"/>
<path d="M4436 2598 c-8 -24 -25 -77 -36 -118 -12 -41 -30 -87 -41 -102 l-20
-28 43 0 c40 1 41 2 24 15 -16 12 -17 20 -10 47 9 30 13 33 56 36 45 3 46 3
52 -33 5 -23 3 -42 -5 -51 -10 -12 -5 -14 30 -14 39 0 55 13 28 23 -7 3 -31
64 -52 136 -22 72 -42 131 -46 131 -4 0 -14 -19 -23 -42z m47 -110 c7 -25 5
-26 -31 -24 -20 2 -36 7 -36 12 1 5 10 36 19 69 l18 60 12 -45 c6 -25 15 -57
18 -72z"/>
<path d="M4584 2629 c-2 -4 3 -9 11 -13 22 -8 22 -246 0 -246 -8 0 -15 -4 -15
-10 0 -6 35 -10 85 -10 61 0 85 3 85 13 0 6 3 23 6 37 l6 25 -26 -27 c-20 -21
-36 -28 -66 -28 l-40 0 0 120 c0 100 3 120 16 128 13 7 9 10 -20 14 -21 2 -39
1 -42 -3z"/>
<path d="M3529 2613 c-13 -16 -12 -17 4 -4 16 13 21 21 13 21 -2 0 -10 -8 -17
-17z"/>
<path d="M3744 2582 c3 -6 -2 -13 -11 -15 -16 -4 -16 -5 -1 -6 21 -1 32 15 17
25 -7 4 -9 3 -5 -4z"/>
<path d="M3581 2564 c0 -11 3 -14 6 -6 3 7 2 16 -1 19 -3 4 -6 -2 -5 -13z"/>
<path d="M3555 2551 c-3 -5 -1 -12 5 -16 5 -3 10 1 10 9 0 18 -6 21 -15 7z"/>
<path d="M3565 2491 c-3 -5 -1 -12 5 -16 5 -3 10 1 10 9 0 18 -6 21 -15 7z"/>
<path d="M3596 2484 c-11 -28 -7 -36 17 -28 12 4 28 7 35 7 15 0 15 10 0 25
-17 17 -45 15 -52 -4z m44 -4 c0 -5 -9 -10 -21 -10 -11 0 -17 5 -14 10 3 6 13
10 21 10 8 0 14 -4 14 -10z"/>
<path d="M3678 2483 c7 -3 16 -2 19 1 4 3 -2 6 -13 5 -11 0 -14 -3 -6 -6z"/>
<path d="M1012 2445 c0 -16 2 -22 5 -12 2 9 2 23 0 30 -3 6 -5 -1 -5 -18z"/>
<path d="M3693 2455 c0 -8 4 -12 9 -9 5 3 6 10 3 15 -9 13 -12 11 -12 -6z"/>
<path d="M1042 2415 c0 -16 2 -22 5 -12 2 9 2 23 0 30 -3 6 -5 -1 -5 -18z"/>
<path d="M3670 2430 c0 -5 5 -10 11 -10 5 0 7 5 4 10 -3 6 -8 10 -11 10 -2 0
-4 -4 -4 -10z"/>
<path d="M3723 2395 c0 -8 4 -12 9 -9 5 3 6 10 3 15 -9 13 -12 11 -12 -6z"/>
<path d="M1021 2374 c0 -11 3 -14 6 -6 3 7 2 16 -1 19 -3 4 -6 -2 -5 -13z"/>
<path d="M84 2062 c3 -5 0 -13 -6 -15 -9 -4 -10 -6 -1 -6 17 -1 25 16 12 25
-7 4 -9 3 -5 -4z"/>
<path d="M25 2026 c-11 -6 -21 -18 -23 -25 -3 -12 0 -12 15 0 47 37 51 51 8
25z"/>
<path d="M647 1966 c-4 -10 -1 -13 8 -9 8 3 12 9 9 14 -7 12 -11 11 -17 -5z"/>
<path d="M605 1920 c-3 -11 -4 -29 0 -39 3 -11 1 -22 -5 -26 -9 -6 -14 7 -11
28 0 4 -3 7 -9 7 -14 0 -13 -6 6 -42 l16 -31 34 53 c33 52 47 93 20 58 -7 -10
-16 -15 -19 -11 -4 3 -7 -1 -7 -10 0 -9 -5 -17 -11 -17 -7 0 -9 10 -5 25 8 30
0 34 -9 5z"/>
<path d="M532 1875 l-23 -13 30 -4 c17 -3 31 -1 31 4 0 4 -5 8 -11 8 -5 0 -7
5 -4 10 7 12 7 12 -23 -5z"/>
<path d="M477 1849 c7 -7 15 -10 18 -7 3 3 -2 9 -12 12 -14 6 -15 5 -6 -5z"/>
<path d="M488 1813 c7 -3 16 -2 19 1 4 3 -2 6 -13 5 -11 0 -14 -3 -6 -6z"/>
<path d="M581 1700 c-10 -16 -20 -28 -23 -25 -2 3 -14 -5 -25 -18 -25 -27
-120 -188 -100 -167 42 41 141 168 158 202 23 45 17 51 -10 8z"/>
<path d="M275 1274 c-9 -14 -14 -28 -12 -31 3 -3 13 9 22 26 19 38 14 41 -10
5z"/>
<path d="M2064 702 c5 -9 -35 -50 -88 -90 -35 -27 -27 -27 97 2 l98 22 -56 38
c-32 21 -55 34 -51 28z m50 -63 c-34 -13 -41 -10 -37 16 5 23 6 24 30 8 24
-16 24 -17 7 -24z"/>
<path d="M2115 498 c-10 -6 -60 -26 -110 -45 -86 -32 -86 -36 0 -14 22 6 59
11 82 11 59 0 75 8 63 30 -5 9 -6 20 -3 24 10 10 -10 6 -32 -6z m23 -23 c-2
-1 -16 -5 -33 -9 l-30 -6 25 14 c14 8 28 12 33 9 5 -3 7 -6 5 -8z"/>
<path d="M4885 390 c-3 -5 -1 -10 4 -10 6 0 11 5 11 10 0 6 -2 10 -4 10 -3 0
-8 -4 -11 -10z"/>
<path d="M2221 354 c0 -11 3 -14 6 -6 3 7 2 16 -1 19 -3 4 -6 -2 -5 -13z"/>
<path d="M2095 326 c-69 -32 -79 -46 -73 -106 4 -37 0 -57 -13 -80 -11 -17
-19 -34 -19 -38 0 -4 12 11 26 33 21 34 24 48 19 92 l-6 52 42 22 c34 17 47
19 61 10 10 -6 23 -11 30 -11 7 0 4 6 -7 12 -19 11 -18 12 10 24 29 13 29 13
5 13 -14 1 -47 -10 -75 -23z"/>
</g>
</svg>
